<svg width="841" height="664" viewBox="0 0 841 664" fill="none" xmlns="http://www.w3.org/2000/svg">
<path d="M614.348 502.155L527.981 506.691L504.949 664H589.523L608.511 543.557L652.299 664H735.369L692.152 482.975L614.348 502.155Z" fill="#AF3737"/>
<path d="M659.331 494.733C605.494 536.432 551.645 512.342 551.645 512.342L533.039 268.017C535.976 271.443 539.198 273.648 542.406 275.016C552.964 279.504 563.354 274.856 563.354 274.856C578.168 269.212 583.15 260.474 584.806 255.016L585.259 253.329V253.276C585.699 251.271 585.867 250.726 585.867 250.726L583.628 250.554L592.452 248.217L659.331 494.733Z" fill="#6BB2AB"/>
<path d="M629.46 282.742C629.298 281.251 627.748 279.678 626.175 280.051C600.565 286.132 574.956 292.213 549.345 298.294C542.029 300.031 534.711 301.77 527.394 303.507C525.832 303.877 524.58 305.106 524.773 306.878C524.934 308.37 526.486 309.942 528.058 309.569C553.668 303.488 579.277 297.407 604.887 291.326C612.204 289.589 619.522 287.851 626.839 286.114C628.401 285.742 629.653 284.514 629.46 282.742Z" fill="#F4E9DC"/>
<path d="M629.412 310.613C601.963 320.04 574.516 329.469 547.067 338.896C539.291 341.567 531.516 344.238 523.74 346.908C520.112 348.154 522.274 353.836 525.9 352.591C553.348 343.162 580.797 333.734 608.245 324.306C616.021 321.635 623.796 318.964 631.572 316.294C635.198 315.049 633.038 309.368 629.412 310.613Z" fill="#F4E9DC"/>
<path d="M655.537 358.304C655.368 356.739 653.84 355.332 652.252 355.613C620.495 361.261 588.736 366.908 556.978 372.556C548.016 374.149 539.053 375.743 530.091 377.337C528.511 377.618 527.285 379.002 527.47 380.709C527.639 382.273 529.167 383.681 530.755 383.399C562.512 377.751 594.271 372.104 626.028 366.456C634.991 364.863 643.953 363.269 652.916 361.676C654.497 361.394 655.723 360.01 655.537 358.304Z" fill="#F4E9DC"/>
<path d="M657.473 393.227C656.839 391.559 655.179 391.06 653.625 391.494C624.098 399.748 594.571 408.001 565.046 416.255C556.664 418.598 548.283 420.94 539.9 423.284C538.351 423.717 537.672 425.815 538.211 427.234C538.845 428.901 540.505 429.401 542.059 428.967C571.586 420.713 601.113 412.46 630.639 404.206C639.02 401.863 647.402 399.519 655.785 397.177C657.332 396.745 658.013 394.646 657.473 393.227Z" fill="#F4E9DC"/>
<path d="M657.424 439.423C629.151 443.508 600.741 446.587 572.258 448.633C564.26 449.208 556.256 449.699 548.248 450.114C544.431 450.312 545.099 456.373 548.912 456.176C577.428 454.699 605.893 452.209 634.239 448.691C642.198 447.703 650.149 446.633 658.088 445.486C661.863 444.94 661.226 438.874 657.424 439.423Z" fill="#F4E9DC"/>
<path d="M666.325 465.386C636.21 470.087 606.227 475.679 576.43 482.173C568.025 484.004 559.636 485.909 551.262 487.881C549.699 488.249 548.448 489.482 548.641 491.253C548.802 492.747 550.353 494.314 551.926 493.943C581.616 486.951 611.502 480.84 641.539 475.637C650.011 474.169 658.495 472.775 666.989 471.448C670.755 470.861 670.121 464.794 666.325 465.386Z" fill="#F4E9DC"/>
<path d="M820.321 74.0507C815.015 82.85 808.586 90.9548 801.244 98.0716C797.294 111.393 791.019 123.989 782.817 135.07C779.681 131.657 769.642 122.236 754.643 122.548C752.328 113.912 754.05 104.522 752.31 95.6838C750.933 88.6653 747.357 82.02 747.479 74.8608C747.492 73.6005 747.709 72.1942 748.696 71.4531C749.505 70.8423 750.642 70.8701 751.559 71.2885C752.479 71.6948 753.21 72.4425 753.886 73.1995C757.66 77.4955 760.026 82.846 762.248 88.1541C768.553 72.9724 776.599 58.5516 786.159 45.2663C786.883 44.269 787.668 43.2278 788.799 42.7524C789.927 42.2876 791.476 42.6488 791.891 43.8321C792.18 44.6196 791.873 45.4934 791.574 46.2796C787.414 57.1214 783.253 67.9738 779.103 78.8275L779.164 78.8514C783.996 68.7785 789.739 59.1545 796.303 50.1626C797.882 47.994 799.534 45.84 801.622 44.1707C802.437 43.528 803.459 42.9396 804.447 43.2265C805.413 43.5094 805.995 44.5704 806.05 45.5996C806.117 46.6195 805.762 47.6288 805.417 48.5836C801.975 57.9673 797.928 67.1119 793.806 76.1967C798.816 68.0601 804.124 60.1107 809.709 52.3645C810.72 50.9581 812.321 49.3858 813.875 50.1055C815.173 50.6925 815.4 52.484 815.218 53.9315C814.795 57.2276 813.214 60.2236 811.649 63.1319C807.839 70.1809 803.921 77.1622 799.993 84.1422C804.693 78.6894 810.194 73.9538 816.256 70.1743C816.978 69.7241 817.743 69.2712 818.578 69.1238C819.424 68.9791 820.383 69.1929 820.907 69.8848C821.815 71.0587 821.089 72.7718 820.321 74.0507Z" fill="#F99958"/>
<path d="M532.727 264.024L528.615 244.422C528.615 244.422 517.98 254.327 516.589 268.232C516.589 268.232 478.193 299.763 468.935 312.984C459.689 326.206 439.939 418.578 439.796 429.628C439.57 448.278 512.881 514.741 512.881 514.741C502.47 527.108 510.671 545.82 510.671 545.82C539.75 558.933 564.409 550.332 564.409 550.332L532.727 264.024ZM499.884 426.688L517.836 364.932L521.628 462.137L499.884 426.688Z" fill="#F2B34E"/>
<path d="M787.293 129.427C787.293 129.427 765.711 227.686 745.45 244.418C725.188 261.151 674.534 313.886 674.534 313.886L683.785 398.759L704.487 482.768C704.487 482.768 713.958 490.43 712.858 507.389C711.758 524.334 659.124 545.37 659.124 545.37L630.918 396.169L584.935 254.564L583.628 250.554L570.561 229C577.327 227.287 591.275 234.326 591.275 234.326L652.953 228.443L712.405 202.347L750.289 121.738C751 121.539 751.699 121.353 752.385 121.193C768.687 117.382 781.716 125.35 785.882 128.351C786.801 129.015 787.293 129.427 787.293 129.427Z" fill="#F2B34E"/>
<path d="M612.709 295.991C610.904 282.656 607.629 269.522 602.952 256.942C600.294 249.792 597.177 242.825 593.63 236.095C593.271 235.413 592.159 235.848 592.522 236.538C598.742 248.339 603.622 260.867 607.069 273.809C610.525 286.782 612.529 300.167 613.039 313.606C613.327 321.2 613.125 328.805 612.442 336.372C612.372 337.15 613.545 337.347 613.616 336.563C614.837 323.06 614.527 309.422 612.709 295.991Z" fill="#EA8C11"/>
<path d="M543.231 370.037C537.007 358.134 531.851 345.652 527.837 332.788C523.825 319.93 520.958 306.7 519.282 293.309C518.341 285.79 517.781 278.223 517.598 270.645C517.578 269.862 516.397 270 516.416 270.782C516.745 284.333 518.29 297.844 521.02 311.105C523.741 324.327 527.618 337.297 532.614 349.802C535.433 356.859 538.611 363.762 542.125 370.481C542.482 371.163 543.593 370.728 543.231 370.037Z" fill="#EA8C11"/>
<path d="M672.688 266.087C672.164 276.775 671.64 287.464 671.116 298.152C670.967 301.177 670.82 304.202 670.671 307.228C670.633 308.003 671.805 308.202 671.844 307.419C672.368 296.731 672.892 286.042 673.416 275.354C673.565 272.329 673.713 269.304 673.861 266.279C673.9 265.502 672.727 265.303 672.688 266.087Z" fill="#EA8C11"/>
<path d="M685.468 273.18C681.931 283.697 678.846 294.37 676.228 305.165C676.043 305.926 677.218 306.113 677.401 305.356C679.995 294.666 683.048 284.098 686.551 273.685C686.798 272.948 685.718 272.439 685.468 273.18Z" fill="#EA8C11"/>
<path d="M724.282 211.858C721.662 208.451 718.541 205.467 715.031 203.043C714.401 202.608 713.643 203.549 714.278 203.987C717.705 206.355 720.76 209.246 723.319 212.576C723.794 213.19 724.757 212.476 724.282 211.858Z" fill="#EA8C11"/>
<path d="M517.764 346.96C517.726 352.988 517.69 359.015 517.652 365.043C517.647 365.825 518.828 365.685 518.834 364.906L518.945 346.823C518.95 346.041 517.769 346.182 517.764 346.96Z" fill="#EA8C11"/>
<path d="M554.854 536.867C550.884 538.391 542.495 514.753 542.495 514.753C542.495 514.753 537.397 530.085 526.084 533.976L522.602 513.118L522.364 511.752C522.472 511.679 522.566 511.606 522.662 511.521C530.374 505.19 536.804 497.225 541.461 488.285C541.331 488.101 541.2 487.931 541.069 487.748C541.569 488.065 542.055 488.419 542.543 488.785C546.013 491.469 549.281 495.579 551.349 501.861C557.79 521.376 558.824 535.342 554.854 536.867Z" fill="#F99958"/>
<path d="M542.686 488.515C542.638 488.6 542.591 488.699 542.543 488.784C541.237 491.296 539.798 493.736 538.23 496.09C533.916 502.543 528.616 508.3 522.603 513.118C520.63 514.692 518.574 516.167 516.459 517.534C516.281 517.644 516.091 517.644 515.937 517.583C515.794 517.595 515.639 517.559 515.521 517.46C514.82 516.899 514.119 516.35 513.418 515.79C513.156 515.583 513.145 515.192 513.335 514.936C513.537 514.668 513.929 514.656 514.167 514.851C514.797 515.352 515.427 515.839 516.056 516.34C518.231 514.937 520.346 513.399 522.366 511.754C522.473 511.681 522.568 511.608 522.663 511.523C530.376 505.192 536.805 497.227 541.463 488.287C541.332 488.104 541.202 487.934 541.071 487.751C534.844 479.225 528.355 470.906 521.63 462.807C521.13 462.209 522.093 461.489 522.592 462.087C529.509 470.405 536.163 478.956 542.533 487.725C542.581 487.786 542.593 487.835 542.616 487.897C542.757 488.052 542.816 488.272 542.686 488.515Z" fill="#EA8C11"/>
<path d="M541.337 515.191C539.237 523.9 532.283 530.087 525.066 534.503C522.824 535.875 520.513 537.122 518.189 538.34C517.515 538.693 517.938 539.834 518.621 539.476C526.664 535.257 534.888 530.427 539.707 522.279C540.976 520.133 541.925 517.818 542.512 515.381C542.695 514.62 541.52 514.434 541.337 515.191Z" fill="#EA8C11"/>
<path d="M793.715 75.7997C792.976 77.5314 792.363 79.3123 791.86 81.1303C791.772 81.4477 792.063 81.781 792.354 81.8275C792.703 81.8846 792.945 81.6389 793.034 81.3202C793.507 79.6084 794.102 77.9325 794.798 76.303C795.105 75.5846 794.022 75.0799 793.715 75.7997Z" fill="#D36D29"/>
<path d="M800.236 86.6906C793.318 82.5194 785.681 79.6815 777.767 78.3216C777.013 78.1914 776.826 79.3959 777.581 79.5261C785.397 80.8687 792.912 83.6814 799.744 87.8008C800.404 88.1992 800.889 87.0837 800.236 86.6906Z" fill="#D36D29"/>
<path d="M766.564 96.3479C765.591 93.2391 764.319 90.2497 762.782 87.3919C762.625 87.101 762.19 87.0825 761.952 87.2564C761.664 87.4662 761.666 87.8208 761.82 88.1077C763.306 90.8699 764.517 93.7862 765.457 96.7901C765.69 97.5378 766.796 97.0942 766.564 96.3479Z" fill="#D36D29"/>
<path d="M778.125 92.5007C777.619 91.9204 776.654 92.6322 777.164 93.2178C781.458 98.1474 784.384 104.22 785.543 110.729C785.679 111.496 786.863 111.368 786.724 110.592C785.53 103.883 782.558 97.5883 778.125 92.5007Z" fill="#D36D29"/>
<path d="M696.603 500.894C686.67 497.328 677.499 491.679 669.763 484.353C667.552 482.259 665.468 480.032 663.514 477.684C663.02 477.091 662.055 477.804 662.553 478.401C669.512 486.762 678.128 493.618 687.761 498.437C690.474 499.794 693.264 500.983 696.113 502.004C696.829 502.262 697.325 501.153 696.603 500.894Z" fill="#EA8C11"/>
<path d="M560.53 167.105L567.302 185.354L501.858 210.94L495.086 192.69C493.2 187.607 492.382 182.627 492.482 177.928C490.482 177.575 488.559 176.746 487.036 175.384C485.666 174.158 484.67 172.263 485.412 170.393C486.081 168.734 487.608 167.916 489.177 167.381C487.19 165.899 485.317 163.761 486.543 161.141C487.765 158.537 490.584 158.047 493.15 157.971C491.654 155.176 490.337 151.658 492.525 148.883C493.597 147.525 495.291 147.019 496.956 147.255C498.295 147.437 499.489 148.053 500.633 148.768C500.195 146.25 500.165 143.429 501.014 141.088C501.395 140.026 502.165 139.189 503.315 139.066C504.535 138.927 505.614 139.537 506.54 140.285C508.505 141.878 510.487 143.348 512.771 144.467C513.948 145.038 515.168 145.513 516.41 145.915C534.174 139.53 553.027 146.883 560.53 167.105Z" fill="#AF3737"/>
<path d="M566.917 196.925C566.478 197.148 566.02 197.354 565.532 197.545L567.529 202.925C568.825 206.451 569.426 210.094 569.37 213.678C569.322 217.181 568.66 220.638 567.452 223.864L567.456 223.875C567.124 224.763 566.758 225.623 566.34 226.453C563.237 232.861 557.895 238.134 550.916 240.85C544.086 243.521 536.84 243.286 530.485 240.758C529.487 240.365 528.505 239.914 527.555 239.41C524.326 237.697 521.412 235.364 518.995 232.485C516.88 229.971 515.176 227.06 513.956 223.805L511.971 218.42C511.16 218.737 510.361 218.984 509.586 219.157C496.22 222.204 489.415 204.893 493.914 198.513C494.038 198.334 494.178 198.163 494.311 198.006C496.455 195.354 498.955 195.237 500.911 195.778C502.056 196.087 503.007 196.629 503.595 197.013L503.125 178.989C503.125 178.989 512.357 178.644 524.594 173.859C526.993 172.921 529.102 171.992 530.953 171.086C538.579 167.374 541.79 164.239 541.79 164.239C541.79 164.239 546.328 168.926 551.109 172.591C551.217 172.678 551.338 172.762 551.431 172.843C552.64 173.806 553.78 174.548 554.74 175.113C554.968 175.245 555.18 175.372 555.403 175.494C556.157 175.916 556.871 176.264 557.543 176.498C557.619 176.534 557.707 176.564 557.78 176.588C557.78 176.588 557.952 175.542 558.516 174.291C559.187 172.775 560.448 170.964 562.679 170.365C563.646 170.092 564.788 170.05 566.151 170.365C573.809 172.081 580.061 190.468 566.917 196.925Z" fill="#F99958"/>
<path d="M584.935 254.564L584.805 255.016C583.149 260.474 578.168 269.212 563.353 274.856C563.353 274.856 552.964 279.504 542.406 275.016C539.197 273.648 535.976 271.443 533.039 268.017L532.728 264.02L531.331 257.353L527.553 239.412C534.565 243.144 543.014 243.94 550.92 240.846C558.812 237.765 564.621 231.444 567.455 223.874L570.56 229L583.628 250.554L584.935 254.564Z" fill="#F99958"/>
<path d="M567.461 223.877C567.461 223.877 566.714 255.608 531.334 257.355L527.562 239.411C534.566 243.149 543.016 243.936 550.922 240.846C558.817 237.77 564.618 231.439 567.461 223.877Z" fill="#D36D29"/>
<path d="M544.147 209.129C541.086 210.894 537.991 212.596 534.869 214.245C533.306 206.435 531.635 198.649 529.847 190.891C529.658 190.073 528.447 190.47 528.635 191.284C530.483 199.3 532.21 207.345 533.817 215.415C533.907 215.87 534.442 215.938 534.769 215.767C538.161 213.989 541.518 212.141 544.839 210.226C545.551 209.813 544.858 208.718 544.147 209.129Z" fill="#D36D29"/>
<path d="M521.579 220.592C524.337 220.592 526.573 218.296 526.573 215.465C526.573 212.634 524.337 210.339 521.579 210.339C518.821 210.339 516.585 212.634 516.585 215.465C516.585 218.296 518.821 220.592 521.579 220.592Z" fill="#D36D29"/>
<path d="M557.503 202.195C560.261 202.195 562.497 199.9 562.497 197.069C562.497 194.238 560.261 191.943 557.503 191.943C554.745 191.943 552.509 194.238 552.509 197.069C552.509 199.9 554.745 202.195 557.503 202.195Z" fill="#D36D29"/>
<path d="M521.369 205.337C523.138 204.431 523.689 201.879 522.6 199.637C521.51 197.395 519.192 196.312 517.423 197.218C515.654 198.124 515.103 200.676 516.193 202.918C517.282 205.16 519.6 206.243 521.369 205.337Z" fill="#36344C"/>
<path d="M546.085 193.794C547.854 192.888 548.405 190.336 547.315 188.094C546.226 185.853 543.908 184.77 542.139 185.676C540.37 186.582 539.819 189.133 540.909 191.375C541.998 193.617 544.316 194.7 546.085 193.794Z" fill="#36344C"/>
<path d="M518.272 190.125C517.775 189.701 517.133 189.394 516.471 189.45C516.247 189.49 516.023 189.53 515.798 189.569C515.361 189.713 514.987 189.959 514.678 190.306L510.279 194.271C509.831 194.674 509.601 195.537 509.621 196.119C509.645 196.767 509.96 197.537 510.456 197.958C510.953 198.382 511.595 198.689 512.258 198.633C512.482 198.593 512.706 198.553 512.931 198.514C513.368 198.37 513.742 198.124 514.052 197.776L518.451 193.812C518.898 193.409 519.129 192.545 519.108 191.964C519.083 191.317 518.766 190.547 518.272 190.125Z" fill="#36344C"/>
<path d="M535.084 181.515C535.053 180.852 535.201 180.142 535.643 179.632C535.809 179.473 535.974 179.312 536.141 179.153C536.516 178.88 536.932 178.721 537.388 178.677L543.119 177.454C543.702 177.329 544.512 177.66 544.954 178.028C545.444 178.437 545.853 179.159 545.884 179.818C545.915 180.481 545.767 181.191 545.325 181.701C545.159 181.86 544.994 182.021 544.827 182.18C544.451 182.453 544.036 182.612 543.579 182.656L537.849 183.879C537.265 184.004 536.456 183.673 536.014 183.305C535.524 182.898 535.114 182.175 535.084 181.515Z" fill="#36344C"/>
<path d="M557.15 217.779C556.176 221.402 553.43 224.256 549.889 225.232C546.918 226.062 542.651 225.646 542.105 221.828C541.571 218.12 544.945 215.716 548.178 215.497C548.19 215.497 548.202 215.509 548.215 215.509C548.334 214.034 548.749 212.594 549.498 211.313C550.389 209.788 551.934 208.313 553.823 208.654C557.625 209.338 557.946 214.766 557.15 217.779Z" fill="#F4E9DC"/>
<path d="M143.929 261.636L132.839 325.422L41.1881 297.287C41.1881 297.287 13.0443 287.408 28.2147 251.971C43.385 216.533 69.4366 165.418 69.4366 165.418C69.4366 165.418 87.4586 92.5576 93.1864 92.3956C98.9143 92.2349 95.3834 113.98 95.3834 113.98C95.3834 113.98 108.88 76.3693 114.686 82.5711C114.686 82.5711 116.804 79.591 119.395 81.1209C121.985 82.6507 120.807 87.8857 120.807 87.8857C120.807 87.8857 123.004 83.6175 125.829 85.4701C128.653 87.3227 119.08 142.492 119.08 142.492C119.08 142.492 140.816 131.095 146.779 138.828C150.283 143.371 131.204 148.452 126.337 154.091C121.473 159.728 107.309 173.057 101.11 173.259L77.8052 254.121L143.929 261.636Z" fill="#E88846"/>
<path d="M94.6963 114.334C93.7259 118.07 92.7542 121.806 91.7838 125.54C91.5872 126.298 92.762 126.483 92.9573 125.731C93.9277 121.996 94.8994 118.26 95.8698 114.526C96.0665 113.767 94.8916 113.583 94.6963 114.334Z" fill="#C4532C"/>
<path d="M113.37 83.4795C109.951 93.2722 106.884 103.194 104.184 113.221C103.417 116.071 102.679 118.929 101.971 121.795C101.784 122.556 102.959 122.742 103.145 121.986C105.625 111.961 108.464 102.032 111.667 92.2244C112.568 89.4675 113.497 86.7212 114.453 83.9842C114.709 83.2498 113.628 82.7412 113.37 83.4795Z" fill="#C4532C"/>
<path d="M110.512 124.002C114.045 111.798 117.579 99.5947 121.112 87.3904C121.33 86.6401 120.154 86.4568 119.939 87.1992C116.405 99.4035 112.872 111.606 109.338 123.811C109.305 123.925 109.313 124.021 109.336 124.108C105.462 122.523 101.351 121.557 97.175 121.292C96.4181 121.244 96.2253 122.448 96.9886 122.496C103.296 122.896 109.406 124.876 114.795 128.261C115.447 128.67 115.931 127.554 115.286 127.149C113.622 126.104 111.88 125.207 110.089 124.43C110.275 124.371 110.443 124.238 110.512 124.002Z" fill="#C4532C"/>
<path d="M105.949 140.172C101.485 143.387 97.021 146.602 92.5572 149.818C91.9297 150.27 92.6297 151.257 93.2559 150.805C97.7196 147.59 102.183 144.375 106.647 141.158C107.275 140.707 106.575 139.72 105.949 140.172Z" fill="#C4532C"/>
<path d="M402.82 615.742C402.187 621.536 382.971 643.37 381.007 640.866C379.043 638.375 384.619 624.596 384.619 624.596C384.619 624.596 371.273 635.71 369.388 633.299C367.513 630.877 374.254 622.985 374.254 622.985C374.254 622.985 369.625 622.023 369.861 618.152C369.861 618.152 366.959 623.471 362.489 622.985C358.018 622.509 368.925 598.184 368.925 598.184C368.925 598.184 356.369 585.263 365.47 565.064L314.053 384.813L350.014 357.475L372.674 429.904C378.195 447.553 382.147 465.678 384.507 484.059L394.42 561.517C394.42 561.517 403.451 609.936 402.82 615.742Z" fill="#E88846"/>
<path d="M383.258 603.28C382.547 608.634 380.455 613.739 377.265 618.007C377.926 616.467 378.372 614.79 378.834 613.191C380.042 609.003 380.926 604.718 381.467 600.385C382.062 595.621 382.242 590.807 382.025 586.011C381.99 585.227 380.808 585.364 380.843 586.147C381.197 593.969 380.442 601.827 378.608 609.428C378.153 611.31 377.633 613.176 377.045 615.019C376.58 616.475 376.167 618.184 375.132 619.345C373.813 620.825 372.159 619.787 371.583 618.171C370.964 616.43 370.899 614.385 370.65 612.56C370.031 608.009 369.485 603.447 369.009 598.878C368.927 598.098 367.746 598.231 367.827 599.014C368.303 603.584 368.848 608.146 369.469 612.697C369.733 614.63 369.818 616.768 370.476 618.614C370.997 620.079 372.257 621.436 373.889 621.317C374.095 621.302 374.289 621.26 374.476 621.203C374.185 621.496 373.908 621.804 373.604 622.086C373.041 622.606 373.735 623.598 374.303 623.072C379.798 617.989 383.432 611.002 384.431 603.471C384.535 602.694 383.361 602.5 383.258 603.28Z" fill="#C4532C"/>
<path d="M389.908 604.113C389.615 603.389 388.506 603.828 388.801 604.556C391.68 611.658 387.599 618.901 383.911 624.747C383.5 625.4 384.416 626.179 384.831 625.52C388.76 619.293 392.968 611.661 389.908 604.113Z" fill="#C4532C"/>
<path d="M150.31 524.637L138.697 664H225.639L240.504 558.04L260.165 664H347.241L331.414 515.617L150.31 524.637Z" fill="#F2B34E"/>
<path d="M272.956 162.039C271.814 167.807 269.057 173.15 266.182 178.188C261.917 185.677 256.83 192.96 253.787 201.083C254.12 201.278 248.107 205.157 246.158 205.596C241.344 206.706 236.187 206.022 231.837 203.62C227.952 201.46 224.79 198.106 222.829 194.057C218.408 197.606 213.157 200.131 207.571 200.973C198.183 202.4 187.951 198.423 182.936 189.873C178.492 182.275 179.418 171.736 185.801 165.588C182.581 162.125 180.513 157.709 179.729 152.988C178.255 144.169 181.404 134.973 188.57 129.691C195.331 124.715 204.66 123.459 212.301 126.983C215.308 123.873 219.051 121.58 223.127 120.3C230.661 117.945 238.896 119.055 245.373 123.715C251.363 128.032 255.522 134.961 256.425 142.425C261.191 140.266 266.884 142.23 270.056 146.377C273.419 150.768 274.013 156.708 272.956 162.039Z" fill="#36344C"/>
<path d="M257.631 193.591L257.982 199.336C258.207 203.103 257.725 206.764 256.65 210.164C255.595 213.5 253.966 216.604 251.885 219.319L251.884 219.333C246.99 225.694 239.625 229.982 231.196 230.524C222.754 231.077 214.91 227.761 209.296 222.066C206.697 219.449 204.585 216.33 203.106 212.847C201.816 209.808 201.021 206.507 200.799 203.03L200.448 197.285C184.511 198.32 182.444 177.781 188.937 172.787C189.108 172.652 189.289 172.531 189.457 172.421C193.918 169.438 197.396 172.815 198.611 174.289C198.756 174.256 198.892 174.195 199.029 174.121C207.485 170.66 214.114 162.816 216.256 153.725C220.947 157.156 226.878 158.748 232.611 158.116C238.331 157.482 243.802 154.618 247.667 150.241C247.926 157.763 251.048 165.146 256.219 170.482L256.256 171.224C256.256 171.224 258.513 166.571 262.734 166.756C263.729 166.794 264.833 167.096 266.053 167.809C273.107 171.912 273.58 192.571 257.631 193.591Z" fill="#E88846"/>
<path d="M261.734 250.562C261.734 250.562 261.413 251.031 260.428 252.811L260.404 252.86L259.49 254.336C256.329 259.057 249.056 265.887 233.274 266.79C233.274 266.79 222.02 268.07 213.225 260.581C209.755 257.617 206.677 253.312 204.823 247.031L207.141 247.141L207.734 240.347L209.291 222.063C214.911 227.759 222.755 231.077 231.193 230.528C239.619 229.979 246.987 225.698 251.883 219.33L259.643 249.725L261.734 250.562Z" fill="#E88846"/>
<path d="M251.884 219.331C251.884 219.331 242.032 249.417 207.73 240.351L209.296 222.064C214.91 227.76 222.756 231.076 231.197 230.522C239.624 229.979 246.991 225.692 251.884 219.331Z" fill="#C4532C"/>
<path d="M233.858 198.167C230.426 198.925 226.979 199.61 223.522 200.238C224.277 192.304 224.924 184.358 225.451 176.403C225.506 175.565 224.234 175.576 224.179 176.41C223.635 184.629 222.968 192.837 222.179 201.035C222.135 201.497 222.624 201.724 222.987 201.659C226.739 200.99 230.479 200.244 234.202 199.422C235.003 199.248 234.658 197.991 233.858 198.167Z" fill="#C4532C"/>
<path d="M242.069 199.853C242.042 205.007 239.084 209.893 234.625 212.244C233.896 212.627 234.546 213.751 235.273 213.367C240.123 210.811 243.311 205.435 243.341 199.845C243.346 199.006 242.075 199.013 242.069 199.853Z" fill="#36344C"/>
<path d="M210.476 202.499C213.234 202.499 215.47 200.204 215.47 197.373C215.47 194.542 213.234 192.247 210.476 192.247C207.717 192.247 205.481 194.542 205.481 197.373C205.481 200.204 207.717 202.499 210.476 202.499Z" fill="#C4532C"/>
<path d="M250.092 195.826C252.85 195.826 255.086 193.531 255.086 190.7C255.086 187.869 252.85 185.573 250.092 185.573C247.334 185.573 245.098 187.869 245.098 190.7C245.098 193.531 247.334 195.826 250.092 195.826Z" fill="#C4532C"/>
<path d="M213.22 187.615C215.171 187.286 216.432 185.015 216.037 182.543C215.641 180.071 213.739 178.333 211.788 178.662C209.837 178.991 208.575 181.261 208.971 183.734C209.366 186.206 211.269 187.944 213.22 187.615Z" fill="#36344C"/>
<path d="M240.157 184.085C242.108 183.756 243.369 181.486 242.974 179.013C242.579 176.541 240.676 174.803 238.725 175.132C236.774 175.461 235.513 177.732 235.908 180.204C236.304 182.676 238.206 184.414 240.157 184.085Z" fill="#36344C"/>
<path d="M214.615 172.162C214.261 171.607 213.737 171.118 213.088 170.971C212.863 170.942 212.636 170.911 212.411 170.882C211.952 170.886 211.525 171.007 211.129 171.246L205.785 173.699C205.242 173.948 204.772 174.703 204.625 175.266C204.46 175.891 204.541 176.724 204.893 177.276C205.246 177.831 205.77 178.32 206.419 178.467C206.644 178.497 206.871 178.527 207.096 178.556C207.555 178.552 207.982 178.432 208.378 178.192L213.722 175.74C214.265 175.49 214.735 174.736 214.882 174.173C215.047 173.546 214.965 172.714 214.615 172.162Z" fill="#36344C"/>
<path d="M233.155 169.038C233.317 168.396 233.661 167.762 234.231 167.409C234.435 167.307 234.639 167.204 234.844 167.102C235.28 166.955 235.722 166.929 236.171 167.026L241.999 167.597C242.591 167.656 243.271 168.216 243.586 168.701C243.937 169.24 244.12 170.054 243.959 170.693C243.797 171.336 243.453 171.969 242.884 172.323C242.679 172.425 242.475 172.527 242.271 172.629C241.835 172.777 241.392 172.802 240.943 172.705L235.116 172.134C234.523 172.075 233.842 171.515 233.528 171.03C233.177 170.491 232.995 169.677 233.155 169.038Z" fill="#36344C"/>
<path d="M154.11 532.876C154.11 532.876 230.978 566.13 337.353 554.489L330.41 492.355L154.11 532.876Z" fill="#F4E9DC"/>
<path d="M318.55 417.134L334.71 508.503C334.71 508.503 283.777 522.852 242.97 529.622C202.173 536.379 144.977 532.375 144.977 532.375L154.081 431.625L147.485 346.378L140.581 332.729L108.257 322.423L114.532 253.959C114.532 253.959 153.974 248.75 168.413 247.031C182.851 245.311 204.824 247.031 204.824 247.031C206.678 253.312 209.756 257.618 213.227 260.582C222.021 268.07 233.275 266.79 233.275 266.79C249.056 265.887 256.328 259.057 259.491 254.336C259.848 253.811 260.156 253.312 260.405 252.861L260.429 252.811C261.415 251.031 261.735 250.562 261.735 250.562C261.735 250.562 312.063 261.203 326.181 282.684C340.311 304.163 356.841 360.43 356.841 360.43L318.552 386.202V417.134H318.55Z" fill="#AF3737"/>
<path d="M150.724 340.041C148.192 329.122 146.328 318.043 145.158 306.884C144.823 303.689 144.548 300.487 144.324 297.281C144.269 296.499 143.088 296.634 143.142 297.418C143.921 308.613 145.381 319.756 147.53 330.761C148.144 333.913 148.817 337.052 149.542 340.178C149.718 340.931 150.902 340.805 150.724 340.041Z" fill="#8E2323"/>
<path d="M142.719 327.713C139.758 319.457 136.797 311.202 133.836 302.946C133.572 302.209 132.465 302.651 132.729 303.39C135.689 311.646 138.651 319.901 141.611 328.157C141.876 328.893 142.984 328.45 142.719 327.713Z" fill="#8E2323"/>
<path d="M316.447 325.521C316.29 319.837 316.135 314.152 315.978 308.468C315.956 307.685 314.775 307.823 314.797 308.605L316.461 369.205C316.618 374.889 316.773 380.574 316.929 386.258C316.951 387.042 318.133 386.904 318.111 386.122C317.556 365.921 317.002 345.721 316.447 325.521Z" fill="#8E2323"/>
<path d="M289.462 400.234C276.967 403.797 264.578 407.745 252.317 412.079C240.101 416.396 228.012 421.094 216.073 426.163C209.319 429.031 202.614 432.019 195.958 435.121C195.265 435.443 195.692 436.583 196.391 436.257C208.197 430.753 220.165 425.614 232.275 420.854C244.342 416.112 256.547 411.745 268.871 407.761C275.842 405.508 282.852 403.379 289.893 401.371C290.63 401.161 290.194 400.026 289.462 400.234Z" fill="#8E2323"/>
<path d="M251.61 425.583C240.498 427.845 229.543 430.886 218.838 434.689C218.115 434.945 218.547 436.082 219.27 435.826C229.88 432.057 240.731 429.037 251.743 426.796C252.487 426.644 252.363 425.429 251.61 425.583Z" fill="#8E2323"/>
<path d="M279.486 366.44C279.498 369.466 277.419 371.296 274.911 372.404C271.726 373.819 268.422 374.978 265.179 376.222C251.762 381.394 238.25 386.285 224.644 390.921C211.049 395.544 197.359 399.91 183.586 403.996C181.874 404.497 180.176 405.008 178.452 405.509C176.955 405.936 175.457 406.448 173.925 406.765C171.977 407.167 169.362 407.339 167.781 405.826C165.44 403.558 167.423 400.35 168.684 398.105C170.383 395.105 172.106 392.116 173.866 389.165C174.721 387.726 175.612 386.323 176.48 384.896C181.686 375.833 187.223 366.965 193.105 358.354C200.675 347.267 208.792 336.57 217.419 326.336C219.617 323.725 221.852 321.14 224.109 318.591C226.142 316.31 228.126 313.712 230.621 311.943C232.975 310.285 235.731 309.906 238.322 311.261C241.032 312.675 243.111 315.225 245.18 317.445C254.378 327.337 262.815 337.973 270.374 349.232C272.275 352.086 274.128 354.965 275.923 357.88C277.49 360.439 279.463 363.293 279.486 366.44Z" fill="#D36A3C"/>
<path d="M211.314 368.561C225.576 368.561 237.138 356.694 237.138 342.056C237.138 327.417 225.576 315.55 211.314 315.55C197.052 315.55 185.49 327.417 185.49 342.056C185.49 356.694 197.052 368.561 211.314 368.561Z" fill="#F2B34E"/>
<path d="M500.369 664H431.473L412.914 544.823L392.77 664H328.854C328.854 664 324.758 588.252 329.171 529.328C331.503 498.047 340.488 475.687 348.398 461.586C348.398 461.586 353.973 475.321 364.576 479.502C385.965 487.947 412.428 490.253 438.013 451.296L471.986 448.276C472.892 449.321 473.774 450.459 474.634 451.69C478.504 457.289 481.797 464.78 484.605 473.526V473.55C501.636 526.749 500.369 664 500.369 664Z" fill="#6BB2AB"/>
<path d="M411.097 456.448C410.984 469.824 410.868 483.198 410.755 496.574C410.725 500.101 410.694 503.628 410.664 507.155C407.969 507.198 405.273 507.24 402.578 507.282C402.992 494.387 403.406 481.491 403.82 468.596C403.939 464.894 404.058 461.192 404.175 457.491C404.2 456.717 403.026 456.516 403.002 457.3C402.58 470.432 402.158 483.565 401.736 496.697C401.617 500.399 401.498 504.101 401.379 507.802C401.366 508.223 401.611 508.51 402.033 508.503C405.126 508.456 408.22 508.406 411.314 508.357C411.66 508.352 411.835 507.985 411.838 507.683C411.951 494.307 412.067 480.933 412.18 467.557C412.213 463.808 412.245 460.059 412.276 456.31C412.285 455.529 411.104 455.67 411.097 456.448Z" fill="#389688"/>
<path d="M406.817 538.337C399.698 530.81 392.578 523.281 385.46 515.754C383.431 513.608 381.401 511.463 379.372 509.317C378.839 508.754 378.093 509.704 378.619 510.262C385.738 517.789 392.858 525.317 399.977 532.844C402.005 534.99 404.035 537.135 406.064 539.281C406.597 539.844 407.344 538.895 406.817 538.337Z" fill="#389688"/>
<path d="M399.112 538.366C392.778 535.925 386.334 533.795 379.806 531.974C379.068 531.769 378.888 532.976 379.619 533.179C386.046 534.97 392.386 537.074 398.621 539.476C399.335 539.751 399.829 538.642 399.112 538.366Z" fill="#389688"/>
<path d="M532.398 317.223C526.171 336.129 502.166 334.592 491.756 349.9C469.058 376.222 460.882 357.365 440.18 343.497C424.256 336.263 403.162 345.254 389.96 331.08C378.254 313.881 392.384 299.878 373.049 281.717C363.4 268.3 376.698 254.199 379.027 240.636C382.247 223.279 379.501 203.885 388.878 188.248C402.651 165.304 433.87 158.035 453.145 176.795C462.498 184.26 464.422 196.128 468.118 206.995C470.685 214.521 475.474 221.047 481.784 225.706C500.061 239.209 494.095 236.122 499.134 263.701C510.067 284.803 542.344 282.754 532.398 317.223Z" fill="#36344C"/>
<path d="M525.612 313.091C417.221 342.902 383.317 290.281 377.874 280.096C377.636 279.645 377.459 279.255 377.327 278.986C377.137 278.633 377.065 278.438 377.065 278.438L409.305 275.608L409.329 272.693L409.542 253.957C414.711 258.898 421.782 261.763 429.364 261.252C436.233 260.801 442.341 257.667 446.786 252.922L452.561 274.791C462.816 276.316 483.566 279.585 495.236 282.731C511.173 287.037 520.928 305.125 520.928 305.125L525.612 313.091Z" fill="#D36D29"/>
<path d="M456.25 321.768L473.841 278.236L477.983 278.99L476.457 321.768C476.457 321.768 471.116 328.55 456.25 321.768Z" fill="#F2B34E"/>
<path d="M446.786 252.927C446.786 252.927 436.921 268.951 409.386 268.202L409.546 253.955C414.718 258.904 421.787 261.762 429.367 261.256C436.237 260.803 442.345 257.671 446.786 252.927Z" fill="#AA3617"/>
<path d="M453.074 229.185L453.398 234.282C453.878 241.885 451.098 248.967 446.295 254.07C442.046 258.61 436.2 261.608 429.625 262.04C422.373 262.524 415.607 259.789 410.658 255.053C406.054 250.667 403.009 244.547 402.581 237.652L402.257 232.555C388.086 233.492 386.231 215.237 391.992 210.796C396.308 207.468 399.688 210.981 400.687 212.254C400.899 212.509 425.742 198.636 435.379 188.288C436.617 186.955 437.817 185.601 438.974 184.192L439.122 184.321C439.431 185.55 439.785 186.761 440.176 187.967C442.645 195.629 446.622 202.784 451.786 208.86L451.817 209.3C451.817 209.3 454.859 202.972 460.514 206.246C461.809 207.001 462.857 208.379 463.587 210.095C463.689 210.341 463.782 210.6 463.874 210.859C466.193 217.577 463.9 228.465 453.074 229.185Z" fill="#D36D29"/>
<path d="M431.031 232.619C427.931 232.983 424.825 233.282 421.713 233.529C423.055 226.578 424.301 219.609 425.441 212.621C425.561 211.884 424.434 211.78 424.315 212.513C423.138 219.734 421.852 226.935 420.458 234.115C420.379 234.52 420.793 234.764 421.121 234.739C424.496 234.481 427.867 234.156 431.229 233.761C431.953 233.676 431.753 232.534 431.031 232.619Z" fill="#AA3617"/>
<path d="M410.418 234.384C412.869 234.384 414.857 232.344 414.857 229.828C414.857 227.311 412.869 225.271 410.418 225.271C407.966 225.271 405.979 227.311 405.979 229.828C405.979 232.344 407.966 234.384 410.418 234.384Z" fill="#AA3617"/>
<path d="M446.023 232.02C448.475 232.02 450.462 229.98 450.462 227.464C450.462 224.947 448.475 222.907 446.023 222.907C443.571 222.907 441.584 224.947 441.584 227.464C441.584 229.98 443.571 232.02 446.023 232.02Z" fill="#AA3617"/>
<path d="M413.669 221.428C415.422 221.311 416.73 219.416 416.59 217.194C416.45 214.972 414.915 213.265 413.161 213.381C411.408 213.498 410.1 215.394 410.24 217.616C410.38 219.838 411.915 221.545 413.669 221.428Z" fill="#36344C"/>
<path d="M437.791 220.711C439.544 220.595 440.852 218.699 440.712 216.477C440.572 214.255 439.037 212.548 437.283 212.665C435.53 212.781 434.222 214.677 434.362 216.899C434.502 219.121 436.037 220.828 437.791 220.711Z" fill="#36344C"/>
<path d="M416.215 207.898C415.95 207.375 415.528 206.897 414.965 206.709C414.769 206.662 414.571 206.616 414.374 206.569C413.968 206.532 413.58 206.601 413.21 206.776L408.275 208.468C407.773 208.641 407.294 209.266 407.116 209.751C406.918 210.29 406.918 211.033 407.182 211.553C407.447 212.076 407.869 212.554 408.432 212.743C408.628 212.789 408.825 212.836 409.023 212.882C409.429 212.92 409.817 212.851 410.187 212.675L415.122 210.983C415.624 210.811 416.103 210.185 416.281 209.701C416.481 209.163 416.479 208.419 416.215 207.898Z" fill="#36344C"/>
<path d="M432.879 206.792C433.077 206.238 433.436 205.709 433.969 205.447C434.157 205.375 434.348 205.302 434.537 205.23C434.935 205.14 435.328 205.157 435.718 205.282L440.823 206.307C441.342 206.412 441.896 206.969 442.134 207.426C442.398 207.934 442.491 208.67 442.294 209.221C442.097 209.775 441.738 210.305 441.205 210.566C441.016 210.638 440.826 210.711 440.637 210.783C440.239 210.873 439.845 210.856 439.456 210.731L434.35 209.706C433.831 209.601 433.278 209.044 433.04 208.588C432.776 208.08 432.684 207.343 432.879 206.792Z" fill="#36344C"/>
<path d="M438.89 244.679C436.826 247.45 433.389 248.793 430.057 248.189C427.103 247.668 422.729 244.764 424.356 241.102C425.629 238.269 429.286 238.424 431.769 239.573C432.245 238.877 432.771 238.225 433.433 237.707C434.712 236.721 436.477 236.318 438.024 236.864C439.431 237.356 440.34 238.638 440.45 240.156C440.577 241.796 439.846 243.409 438.89 244.679Z" fill="#F4E9DC"/>
<path d="M362.591 369.711L361.949 415.244C353.132 433.735 339.429 443.075 324.85 441.834C298.502 439.591 280.915 324.592 280.915 324.606C280.903 324.594 280.903 324.582 280.891 324.568C276.435 318.348 274.236 310.737 271.645 303.455C267.76 292.538 262.851 282.011 257.004 272.058C256.386 270.985 255.744 269.595 256.445 268.581C257.039 267.69 258.299 267.642 259.31 267.923C262.019 268.703 263.956 271.106 265.691 273.387C269.173 277.949 272.643 282.511 276.125 287.06C273.308 277.375 270.575 267.63 269.221 257.628C268.805 254.518 268.531 251.285 269.375 248.26C269.601 247.444 270.016 246.552 270.801 246.308C271.406 246.125 272.061 246.393 272.524 246.845C272.987 247.271 273.273 247.869 273.546 248.454C275.114 251.87 276.267 255.479 277.397 259.078C279.678 266.298 281.96 273.532 284.229 280.766H284.253C281.828 268.8 279.428 256.774 278.953 244.576C278.917 243.894 278.917 243.186 279.132 242.539C279.37 241.904 279.904 241.32 280.557 241.271C281.282 241.198 281.912 241.723 282.4 242.271C283.672 243.722 284.527 245.503 285.276 247.296C287.332 252.199 288.769 257.346 290.208 262.47C291.682 267.739 293.167 272.996 294.629 278.253C293.048 266.751 291.54 255.066 293.179 243.576C293.346 242.454 293.738 241.088 294.831 240.845C295.901 240.6 296.828 241.649 297.375 242.626C299.49 246.406 300.227 250.81 300.976 255.092C302.984 266.8 305.301 278.45 307.893 290.025C311.22 282.913 315.154 276.107 319.657 269.729C320.205 268.96 320.787 268.167 321.583 267.692C322.367 267.204 323.46 267.106 324.185 267.692C325.111 268.447 325.064 269.875 324.886 271.07C323.733 278.486 320.43 285.353 318.516 292.598C317.21 297.562 316.568 302.674 315.296 307.638C314.12 312.273 312.314 316.883 309.247 320.469L327.595 364.318L333.169 349.925C338.907 355.16 348.438 362.564 362.591 369.711Z" fill="#D36D29"/>
<path d="M557 429.216C538.644 443.213 484.605 473.528 484.605 473.528V473.551L485.623 500.592C473.774 499.187 465.694 485.271 465.694 485.271C465.694 485.271 462.254 510.172 458.067 509.534C453.868 508.883 452.069 494.993 454.434 474.538C456.787 454.083 474.635 451.691 474.635 451.691L515.163 406.519L507.445 391.582C518.672 388.481 535.646 382.173 549.09 370.152L558.152 387.89C558.152 387.89 575.344 415.231 557 429.216Z" fill="#D36D29"/>
<path d="M554.994 370.15C541.55 382.172 524.574 388.479 513.349 391.579C506.151 393.566 501.319 394.239 501.319 394.239L487.433 374.598L471.986 448.274L438.013 451.294C412.426 490.253 389.683 495.375 361.569 480.415C351.485 475.048 348.396 461.586 348.396 461.586C355.401 449.111 361.569 443.106 361.569 443.106L361.953 415.24L362.587 369.709C348.442 362.565 338.901 355.155 333.164 349.928C328.445 345.631 326.307 342.797 326.307 342.797C326.307 342.797 334.387 320.623 344.968 299.739C355.561 278.867 377.062 278.437 377.062 278.437C377.062 278.437 377.141 278.634 377.322 278.994C377.458 279.261 377.639 279.645 377.877 280.098C383.32 290.285 417.225 342.903 525.616 313.097L554.994 370.15Z" fill="#F4E9DC"/>
<path d="M297.071 278.479C289.426 280.334 282.116 283.379 275.379 287.529C274.723 287.934 275.425 288.917 276.077 288.516C282.625 284.483 289.773 281.495 297.205 279.691C297.938 279.513 297.817 278.298 297.071 278.479Z" fill="#AA3617"/>
<path d="M302.079 318.241C297.489 320.064 293.096 322.379 288.973 325.138C288.331 325.568 289.032 326.552 289.671 326.125C293.712 323.421 298.013 321.163 302.512 319.377C303.225 319.093 302.795 317.956 302.079 318.241Z" fill="#AA3617"/>
<path d="M345.544 396.731C340.084 386.31 334.624 375.889 329.163 365.468C328.806 364.786 327.694 365.22 328.056 365.912C333.516 376.333 338.976 386.753 344.436 397.174C344.793 397.857 345.906 397.423 345.544 396.731Z" fill="#AA3617"/>
<path d="M467.337 479.51C466.995 479.454 466.736 479.696 466.656 480.018C466.215 481.788 465.775 483.559 465.334 485.33C465.255 485.65 465.532 485.979 465.828 486.027C466.17 486.083 466.429 485.841 466.507 485.519C466.949 483.749 467.389 481.978 467.83 480.207C467.91 479.889 467.632 479.558 467.337 479.51Z" fill="#AA3617"/>
<path d="M482.867 467.931C481.628 465.251 480.39 462.573 479.15 459.893C478.824 459.188 477.714 459.625 478.043 460.336C479.282 463.016 480.52 465.695 481.76 468.375C482.086 469.08 483.197 468.643 482.867 467.931Z" fill="#AA3617"/>
<path d="M489.675 500.938C480.111 498.971 471.441 493.239 465.727 485.128C465.278 484.49 464.317 485.207 464.766 485.845C469.349 492.351 475.805 497.417 483.118 500.266C485.187 501.072 487.32 501.697 489.489 502.143C490.241 502.296 490.424 501.092 489.675 500.938Z" fill="#389688"/>
<path d="M362.448 331.534C362.444 330.75 361.263 330.891 361.267 331.671C361.316 342.633 361.366 353.597 361.415 364.56C361.419 365.343 362.601 365.203 362.597 364.423C362.548 353.46 362.498 342.498 362.448 331.534Z" fill="#E2CAB0"/>
<path d="M414.027 367.043C409.686 372.543 403.498 376.436 396.757 377.933C389.958 379.443 382.84 378.394 376.658 375.145C373.185 373.321 370.061 370.818 367.516 367.78C367.02 367.188 366.055 367.901 366.554 368.498C371.276 374.135 377.855 377.987 384.979 379.331C392.086 380.673 399.467 379.302 405.768 375.711C409.285 373.707 412.414 371.025 414.947 367.816C415.428 367.205 414.508 366.432 414.027 367.043Z" fill="#E2CAB0"/>
<path d="M476.661 367.58C472.32 373.079 466.131 376.973 459.391 378.469C452.591 379.979 445.474 378.93 439.292 375.682C435.819 373.857 432.695 371.354 430.15 368.317C429.654 367.724 428.689 368.438 429.188 369.034C433.91 374.671 440.489 378.524 447.613 379.868C454.72 381.209 462.101 379.839 468.402 376.248C471.919 374.244 475.047 371.561 477.581 368.353C478.062 367.742 477.142 366.969 476.661 367.58Z" fill="#E2CAB0"/>
<path d="M487.847 373.037C483.905 365.073 479.586 357.308 474.902 349.779C474.489 349.117 473.531 349.836 473.941 350.496C478.57 357.939 482.844 365.608 486.739 373.48C487.082 374.172 488.194 373.738 487.847 373.037Z" fill="#E2CAB0"/>
<path d="M446.287 436.453C443.599 440.391 440.91 444.329 438.223 448.268C437.785 448.908 438.703 449.683 439.143 449.041C441.831 445.102 444.52 441.164 447.207 437.225C447.644 436.585 446.727 435.81 446.287 436.453Z" fill="#E2CAB0"/>
<path d="M425.564 457.028C418.425 465.092 409.645 471.889 399.42 475.168C389.328 478.403 378.087 477.984 368.815 472.477C364.177 469.722 360.234 465.785 357.584 460.993C357.207 460.31 356.249 461.034 356.623 461.71C361.54 470.603 370.744 476.404 380.478 477.972C391.711 479.782 403.158 476.334 412.592 470.093C417.751 466.682 422.363 462.456 426.484 457.801C426.999 457.218 426.077 456.449 425.564 457.028Z" fill="#E2CAB0"/>
<path d="M522.127 402.086C521.924 401.8 521.574 401.782 521.298 401.951C519.494 403.049 517.692 404.146 515.888 405.244C515.613 405.413 515.58 405.847 515.756 406.096C515.96 406.382 516.309 406.4 516.587 406.231C518.391 405.133 520.193 404.036 521.997 402.938C522.272 402.77 522.303 402.336 522.127 402.086Z" fill="#AA3617"/>
<path d="M453.511 273.451C443.735 281.832 430.125 284.385 418.126 279.941C414.751 278.692 411.575 276.939 408.701 274.735C408.089 274.265 407.335 275.208 407.948 275.68C418.555 283.815 432.843 285.614 445.016 280.235C448.333 278.769 451.437 276.814 454.208 274.438C454.795 273.936 454.1 272.947 453.511 273.451Z" fill="#EDDAC5"/>
<path d="M429.298 294.278C432.415 294.278 434.942 291.685 434.942 288.486C434.942 285.286 432.415 282.693 429.298 282.693C426.181 282.693 423.654 285.286 423.654 288.486C423.654 291.685 426.181 294.278 429.298 294.278Z" fill="#F2B34E"/>
</svg>
