<svg width="643" height="637" viewBox="0 0 643 637" fill="none" xmlns="http://www.w3.org/2000/svg">
<path d="M381.562 220.775C380.396 222.409 264.983 238.917 259.259 238.14C259.04 238.118 258.772 238.045 258.453 237.942C251.232 235.932 216.041 214.492 213.365 212.662C206.771 208.155 225.844 169.655 232.707 162.902C237.273 158.411 246.574 155.872 246.574 155.872C246.574 155.872 263.975 87.0534 278.559 71.5084C282.22 67.6073 353.99 58.7628 367.566 62.4155C373.378 63.98 388.443 74.2302 389.108 76.2812C389.108 76.2812 389.108 76.2812 389.106 76.3049C389.89 79.3122 382.731 219.118 381.562 220.775Z" fill="#FFC727"/>
<path opacity="0.4" d="M381.562 220.775C380.396 222.409 264.983 238.917 259.259 238.14C259.04 238.118 258.772 238.045 258.453 237.942C251.232 235.932 216.041 214.492 213.365 212.662C206.771 208.155 225.844 169.655 232.707 162.902C237.273 158.411 246.574 155.872 246.574 155.872C246.574 155.872 263.975 87.0534 278.559 71.5084C282.22 67.6073 353.99 58.7628 367.566 62.4155C373.378 63.98 388.443 74.2302 389.108 76.2812C389.108 76.2812 389.108 76.2812 389.106 76.3049C389.89 79.3122 382.731 219.118 381.562 220.775Z" fill="black"/>
<path opacity="0.4" d="M381.561 220.775C380.396 222.409 264.982 238.917 259.258 238.14C259.04 238.118 258.772 238.045 258.452 237.942C265.891 211.197 300.924 85.6679 302.298 84.7404C303.641 83.8331 372.494 77.0075 389.105 76.3064C389.889 79.312 382.73 219.118 381.561 220.775Z" fill="black"/>
<path d="M391.723 55.8315C391.22 64.7655 387.574 71.9712 383.301 72.6673V72.7568L285.981 80.0504L287.825 45.632L382.84 38.5158C383.323 38.3553 383.805 38.2844 384.307 38.3013C384.474 38.3013 384.662 38.3182 384.831 38.3553L385.167 38.3367V38.4263C389.313 39.4788 392.183 46.9329 391.723 55.8315Z" fill="#FFC727"/>
<path d="M295.232 63.1621C294.72 72.6689 290.573 80.2294 285.97 80.0503C281.367 79.8712 278.053 72.0184 278.565 62.5117C279.077 53.0049 283.223 45.4444 287.826 45.6235C292.427 45.8043 295.744 53.6553 295.232 63.1621Z" fill="#FFC727"/>
<path d="M295.012 54.3918C294.392 52.9574 293.63 51.5771 292.729 50.2542C291.921 49.0682 290.95 47.7724 289.41 47.2165C289.238 47.154 289.037 47.3365 289.202 47.4598C291.639 49.2828 292.866 52.5469 293.817 55.12C294.857 57.9398 295.397 60.8998 295.262 63.8581C295.027 69.0262 292.733 74.9428 288.235 78.5921C288.074 78.7222 288.319 78.9114 288.481 78.7915C291.101 76.8368 293.326 74.811 294.75 72.0555C296.131 69.3827 296.907 66.546 296.943 63.6215C296.977 60.4757 296.286 57.3383 295.012 54.3918Z" fill="#263238"/>
<path d="M367.4 99.9865C401.621 125.711 475.783 157.341 488.365 144.775C503.833 129.325 489.445 82.0052 486.748 76.8641C483.709 71.0759 427.46 84.9162 431.404 90.8109C433.736 94.298 435.219 98.0047 434.828 98.0047C430.92 98.0047 420.944 92.7724 382.69 82.3989C361.372 76.6208 344.743 82.9564 367.4 99.9865Z" fill="#EB9481"/>
<path d="M434.848 97.8662C436.594 101.499 438.031 105.167 439.637 108.787C441.191 112.426 442.906 115.986 444.567 119.644C441.864 116.461 439.849 112.893 438.242 109.226C436.662 105.547 435.463 101.752 434.848 97.8662Z" fill="#263238"/>
<path d="M473.454 44.772C480.766 53.2194 487.784 75.4768 487.05 81.4002C486.316 87.3236 442.258 98.7361 436.402 95.2C430.545 91.6639 408.511 61.5959 409.017 50.8964C409.522 40.1985 465.878 36.0187 473.454 44.772Z" fill="#EB9481"/>
<path d="M409.661 26.7215C405.953 23.0097 391.646 13.5485 387.887 16.3311C384.128 19.1137 392.149 27.6152 395.543 30.979C402.535 37.9076 407.494 49.8068 409.772 55.6C412.051 61.3933 425.399 50.8542 425.399 50.8542C425.399 50.8542 419.266 36.3364 409.661 26.7215Z" fill="#EB9481"/>
<path d="M417.645 62.3411C417.645 62.3411 421.351 72.6554 428.57 72.7957C435.526 72.9156 434.54 64.1505 434.48 63.522C434.683 64.066 438.379 73.4681 445.649 72.9731C453.206 72.4544 450.441 63.7991 450.258 63.2416C450.637 63.7045 455.782 69.7529 461.206 68.3084C470.525 65.8214 457.872 50.0449 459.66 43.4897C459.66 43.4897 473.058 44.8041 473.457 44.772C473.457 44.772 461.78 29.5531 451.256 27.992C445.709 27.1692 443.714 31.4064 443.714 31.4064C443.714 31.4064 440.586 26.1454 434.848 26.3802C431.902 26.5086 429.52 30.6326 429.52 30.6326C429.52 30.6326 426.809 26.5086 421.72 26.9901C417.657 27.3618 415.358 31.5399 415.019 33.1787C412.397 45.7975 417.645 62.3411 417.645 62.3411Z" fill="#EB9481"/>
<path d="M415.505 32.0504C415.513 31.9507 415.352 31.922 415.324 32.0216C412.563 41.841 413.065 53.3498 417.625 62.7367C417.773 63.0441 418.426 62.9715 418.337 62.6066C415.812 52.1655 414.55 42.7297 415.505 32.0504Z" fill="#263238"/>
<path d="M429.447 30.4857C429.459 30.3691 429.233 30.3522 429.199 30.4739C426.418 40.6041 427.403 53.5541 434.153 63.8465C434.385 64.1996 435.009 64.3195 434.778 63.8955C430.9 56.7624 428.53 40.0939 429.447 30.4857Z" fill="#263238"/>
<path d="M451.018 63.8211C444.994 53.7382 443.373 43.0268 443.565 31.8204C443.567 31.6751 443.325 31.6869 443.283 31.8085C441.433 37.269 442.186 44.4223 443.325 49.947C444.415 55.2385 446.648 59.8254 450.603 64.0019C450.758 64.1624 451.147 64.0356 451.018 63.8211Z" fill="#263238"/>
<path d="M417.645 62.3411C418.585 64.2655 419.697 66.1273 421.019 67.8539C422.347 69.5485 423.964 71.1958 426.007 72.0135C427.017 72.4105 428.123 72.5237 429.149 72.2551C430.189 71.9729 431.195 71.4948 431.92 70.8224C433.406 69.4961 433.839 67.4045 433.609 65.6035L433.027 61.0723L435.425 65.1575C436.471 66.9399 437.87 68.697 439.534 70.0858C441.187 71.4745 443.269 72.4832 445.369 72.3379C447.566 72.2247 449.295 71.1079 449.728 69.2985C450.242 67.5262 449.902 65.389 449.255 63.5356L447.447 58.359L451.129 62.728C452.127 63.9124 453.37 65.0713 454.706 66.0039C456.048 66.9298 457.586 67.6782 459.134 67.7813C460.65 67.8894 462.254 67.2897 462.961 66.205C463.723 65.073 463.763 63.4934 463.628 61.9948C463.306 58.9385 462.211 55.9008 461.299 52.8428C460.829 51.3138 460.355 49.778 459.966 48.222C459.614 46.6778 459.223 45.0508 459.662 43.4897C459.418 45.0694 460.001 46.6086 460.466 48.1173C460.986 49.626 461.593 51.1161 462.199 52.6113C463.411 55.6 464.592 58.6209 465.15 61.8545C465.358 63.4613 465.519 65.2116 464.541 66.9247C463.513 68.6852 461.153 69.5755 459.001 69.4353C456.806 69.3001 454.978 68.3726 453.437 67.3555C451.889 66.2996 450.581 65.1237 449.39 63.7569L451.264 62.9493C452.048 65.1339 452.503 67.3589 451.901 69.7529C451.597 70.9288 450.813 72.1385 449.589 72.9309C448.362 73.7317 446.935 74.0882 445.498 74.1625C442.511 74.3044 439.925 72.8869 438.108 71.3123C436.243 69.6887 434.837 67.859 433.69 65.8316L435.506 65.3856C435.709 67.685 435.022 70.0655 433.017 71.7449C432.021 72.5643 430.788 73.0745 429.484 73.3634C428.14 73.6607 426.666 73.4377 425.495 72.9106C423.127 71.8107 421.698 69.9455 420.471 68.1395C419.258 66.2962 418.331 64.3449 417.645 62.3411Z" fill="#263238"/>
<path d="M431.589 90.6419C431.589 90.6419 386.493 68.0871 405.486 57.4045C411.131 54.2299 438.76 46.9262 440.59 51.6213C442.954 57.6832 432.089 62.5642 424.697 64.7081C424.697 64.7081 441.305 70.542 439.981 81.5946C439.153 88.525 431.589 90.6419 431.589 90.6419Z" fill="#EB9481"/>
<path d="M403.973 58.3759C405.938 56.8385 408.351 55.7809 410.745 54.7976C413.157 53.816 415.671 53.0354 418.21 52.341C423.323 51.0047 428.424 49.8119 433.831 49.2341C435.19 49.1057 436.578 49.0246 438.084 49.2391C438.829 49.3473 439.642 49.5652 440.351 49.9842C440.708 50.1886 440.994 50.3981 441.332 50.7631C441.605 51.0942 441.814 51.4287 441.935 51.77C442.493 53.1385 442.243 54.5391 441.697 55.7369C441.099 56.9246 440.218 57.9265 439.248 58.8135C437.275 60.5672 434.911 61.8174 432.487 62.8548C430.068 63.9175 427.539 64.7115 425 65.4498L425.034 63.9715C426.957 64.7065 428.676 65.5816 430.353 66.5784C432.017 67.5718 433.573 68.7004 434.966 69.9608C436.35 71.2313 437.523 72.6707 438.404 74.2217C439.301 75.7676 439.835 77.4537 439.98 79.1449C439.567 77.4858 438.847 75.9078 437.836 74.4836C436.834 73.0526 435.538 71.8006 434.133 70.6619C432.723 69.5249 431.167 68.5196 429.516 67.6495C427.876 66.7845 426.106 66.0057 424.359 65.4397L422.138 64.7183L424.393 63.9614C426.82 63.1454 429.258 62.3412 431.509 61.27C433.759 60.2259 435.969 59.0585 437.638 57.5193C439.275 56.0427 440.506 54.0288 439.841 52.3833C439.404 50.8948 436.497 50.8205 434.029 51.0148C431.471 51.1989 428.883 51.6179 426.302 52.0369C423.716 52.4627 421.138 52.9155 418.595 53.4798C413.563 54.6827 408.403 55.8822 403.973 58.3759Z" fill="#263238"/>
<path d="M433.149 93.9431L407.509 129.558C407.509 129.558 375.831 111.563 359.251 97.9202C342.672 84.2775 343.186 74.3382 376.136 80.4187C409.089 86.4992 433.149 93.9431 433.149 93.9431Z" fill="#FFC727"/>
<path d="M433.149 93.9431L407.509 129.558C407.509 129.558 375.831 111.563 359.251 97.9202C342.672 84.2775 343.186 74.3382 376.136 80.4187C409.089 86.4992 433.149 93.9431 433.149 93.9431Z" fill="#455A64"/>
<path d="M401.822 123.825C404.867 118.549 408.069 113.332 411.419 108.19C413.071 105.656 414.684 103.098 416.393 100.591C418.162 97.9977 420.135 95.5125 421.895 92.9174C422.02 92.7333 422.368 92.8718 422.247 93.0627C420.651 95.6189 419.265 98.2664 417.687 100.833C416.06 103.477 414.311 106.072 412.614 108.684C409.262 113.842 405.75 118.932 402.102 123.943C401.999 124.084 401.731 123.982 401.822 123.825Z" fill="#263238"/>
<path d="M317.847 180.023C317.847 180.023 365.245 382.634 368.58 397.591C369.352 400.997 366.613 582.352 366.613 582.352H454.693C454.693 582.352 463.176 423.933 458.924 394.055C454.673 364.159 401.002 180.023 401.002 180.023H317.847Z" fill="#EB9481"/>
<path d="M317.839 180.029C317.839 180.029 340.901 278.637 356.006 343.351L401.012 180.029H317.839Z" fill="#263238"/>
<path d="M430.882 281.333L337.231 290.911L317.847 180.023H401.004L430.882 281.333Z" fill="#FFC727"/>
<path opacity="0.2" d="M430.882 281.333L337.231 290.911L317.847 180.023H401.004L430.882 281.333Z" fill="black"/>
<path d="M340.733 275.609C350.742 273.91 360.897 272.857 371.038 271.875C381.071 270.906 391.11 269.98 401.156 269.106C406.904 268.606 412.678 268.113 418.446 267.853C418.829 267.836 418.869 268.257 418.497 268.316C408.474 269.899 398.298 270.902 388.191 272.036C378.177 273.158 368.154 274.222 358.11 275.138C352.344 275.663 346.598 276.079 340.806 276.273C340.257 276.292 340.203 275.699 340.733 275.609Z" fill="#263238"/>
<path d="M330.802 186.49C337.771 207.72 344.406 229.026 350.724 250.404C351.611 253.402 352.457 256.411 353.316 259.417C354.192 262.482 355.164 265.594 355.657 268.723C355.686 268.91 355.404 268.968 355.325 268.794C352.965 263.637 351.552 258.077 349.857 252.74C348.174 247.44 346.572 242.12 344.96 236.803C341.737 226.17 338.525 215.534 335.49 204.862C333.76 198.773 332.035 192.684 330.34 186.588C330.268 186.333 330.719 186.238 330.802 186.49Z" fill="#263238"/>
<path d="M519.857 651.067C514.99 652.443 376.094 652.098 370.802 649.239C368.803 648.172 367.678 630.934 367.019 610.095C366.87 605.591 366.765 600.96 366.679 596.221C366.574 590.632 366.489 584.971 366.445 579.472C366.276 554.78 367.324 533.038 367.324 533.038H457.101L457.06 579.472L457.038 596.221L456.569 610.095C456.569 610.095 509.676 630.481 515.073 634.154C520.45 637.808 524.702 649.711 519.857 651.067Z" fill="#EB9481"/>
<path d="M519.858 651.067C514.991 652.443 376.095 652.098 370.803 649.239C368.804 648.172 367.679 630.934 367.02 610.095C366.871 605.591 366.766 600.96 366.68 596.221C366.575 590.632 366.49 584.971 366.446 579.472H457.061L457.039 596.221L456.571 610.095C456.571 610.095 509.677 630.481 515.074 634.154C520.451 637.808 524.703 649.711 519.858 651.067Z" fill="#DBDBDB"/>
<path d="M520.276 651.246C517.11 652.133 457.948 652.314 414.87 651.554C404.904 651.373 395.788 651.138 388.434 650.866C378.297 650.469 371.497 649.998 370.392 649.401C367.948 648.063 366.779 622.775 366.228 596.093H457.096L456.628 610.04C456.628 610.04 510.032 630.535 515.473 634.225C520.87 637.915 525.141 649.852 520.276 651.246Z" fill="#FFC727"/>
<path d="M459.954 605.623C450.746 604.136 439.472 605.312 432.414 610.882C432.14 611.099 432.505 611.426 432.805 611.345C441.904 608.929 450.397 607.385 459.914 606.613C460.583 606.559 460.613 605.729 459.954 605.623Z" fill="#263238"/>
<path d="M466.591 609.051C457.383 607.564 446.111 608.74 439.051 614.311C438.777 614.527 439.142 614.855 439.442 614.775C448.54 612.359 457.034 610.813 466.551 610.041C467.222 609.987 467.25 609.158 466.591 609.051Z" fill="#263238"/>
<path d="M473.23 612.479C464.023 610.992 452.751 612.17 445.69 617.738C445.416 617.954 445.782 618.282 446.079 618.203C455.178 615.787 463.671 614.241 473.191 613.47C473.861 613.415 473.889 612.585 473.23 612.479Z" fill="#263238"/>
<path d="M479.867 615.907C470.66 614.42 459.386 615.598 452.327 621.166C452.053 621.383 452.417 621.71 452.716 621.631C461.815 619.215 470.308 617.671 479.826 616.899C480.498 616.843 480.528 616.012 479.867 615.907Z" fill="#263238"/>
<path d="M477.029 587.529C473.423 583.276 466.674 585.168 462.82 587.909C456.575 592.349 451.101 599.294 448.57 605.838C448.507 606 448.634 606.098 448.787 606.122C448.813 606.718 449.438 607.351 450.23 607.105C457.846 604.726 466.335 602.986 472.865 598.688C476.676 596.179 480.439 591.551 477.029 587.529ZM460.906 601.487C457.195 602.736 453.433 603.82 449.775 605.184C452.566 601.693 455.166 598.118 458.368 594.868C459.896 593.317 461.5 591.749 463.266 590.389C466.013 588.272 476.88 583.781 475.227 592.383C474.318 597.125 465.331 600 460.906 601.487Z" fill="#263238"/>
<path d="M425.159 603.733C432.744 606.507 441.475 606.389 449.547 607.075C450.385 607.146 450.806 606.399 450.655 605.816C450.794 605.76 450.889 605.639 450.782 605.497C446.411 599.697 439.073 594.135 431.725 591.163C427.188 589.328 420.098 588.929 417.853 593.814C415.727 598.435 420.731 602.114 425.159 603.733ZM421.019 598.132C416.897 590.154 428.736 592.195 432.019 593.662C434.127 594.604 436.142 595.78 438.075 596.958C442.13 599.425 445.695 602.334 449.42 605.122C445.478 604.578 441.519 604.326 437.559 603.907C432.837 603.405 423.292 602.53 421.019 598.132Z" fill="#263238"/>
<path opacity="0.1" d="M422.952 651.696C420.221 651.659 417.514 651.601 414.874 651.562C404.892 651.371 395.786 651.143 388.444 650.858C378.307 650.478 371.503 650.001 370.384 649.41C368.526 648.381 367.406 633.6 366.735 614.875L422.952 651.696Z" fill="black"/>
<path d="M340.023 572.986L249.418 572.036C249.418 572.036 270.261 309.076 278.008 254.349C278.008 254.349 263.318 224.717 290.812 179.957H401.089C401.089 179.957 393.697 222.549 381.046 249.557C381.046 249.557 372.85 251.431 357.966 258.415L340.023 572.986Z" fill="#EB9481"/>
<path d="M356.35 291.501H269.719L276.297 254.347C276.297 254.347 263.141 216.648 288.859 179.955H401.088C401.088 179.955 396.438 219.91 382.673 249.958L368.58 255.28L356.35 291.501Z" fill="#FFC727"/>
<path opacity="0.2" d="M356.35 291.501H269.719L276.297 254.347C276.297 254.347 263.141 216.648 288.859 179.955H401.088C401.088 179.955 396.438 219.91 382.673 249.958L368.58 255.28L356.35 291.501Z" fill="black"/>
<path d="M368.581 255.283C368.686 254.817 369.818 254.82 369.716 255.306C365.155 277.209 357.95 287.814 357.434 288.818C357.367 288.949 357.16 288.954 357.105 288.811C356.706 287.772 366.519 264.381 368.581 255.283Z" fill="#263238"/>
<path d="M385.231 248.478C375.293 251.389 365.7 255.523 356.528 259.856C356.169 260.027 356.405 260.502 356.796 260.36C366.466 256.825 376.325 253.443 385.753 249.461C386.493 249.147 385.993 248.254 385.231 248.478Z" fill="#263238"/>
<path d="M388.303 192.003C388.278 191.717 387.69 191.655 387.692 191.962C387.771 201.733 387.039 210.33 386.07 219.462C385.622 223.703 381.614 247.131 372.978 245.423C371.531 245.137 370.793 243.926 370.567 242.069C370.295 239.839 371.279 237.102 371.714 234.884C372.673 229.979 373.443 225.06 373.937 220.104C374.86 210.856 374.906 201.608 373.586 192.388C373.542 192.086 373.028 192.108 373.03 192.415C373.042 205.218 372.649 217.996 370.4 230.675C369.318 236.769 365.714 245.943 373.201 246.881C380.828 247.836 385.761 232.468 386.692 228.264C389.29 216.534 389.393 203.87 388.303 192.003Z" fill="#263238"/>
<path d="M373.209 246.051C372.429 247.624 371.8 249.261 371.266 250.907C370.851 252.186 370.287 253.566 370.458 254.899C370.492 255.158 370.895 255.183 371.056 255.007C372.068 253.914 372.497 252.419 373.062 251.123C373.719 249.621 374.414 248.129 375.019 246.612C375.424 245.607 373.689 245.082 373.209 246.051Z" fill="#263238"/>
<path d="M292.833 220.665C300.991 219.971 309.389 220.06 316.955 216.953C324.658 213.79 329.533 207.598 333.463 201.366C335.928 197.455 337.637 193.435 338.882 189.137C338.937 188.945 339.291 188.997 339.283 189.191C339.11 193.125 337.711 197.112 335.952 200.726C334.217 204.292 332.109 207.798 329.472 210.944C326.979 213.915 323.93 216.603 320.153 218.394C316.395 220.175 312.17 221.155 307.91 221.539C302.936 221.988 297.779 221.958 292.811 221.462C292.202 221.402 292.238 220.716 292.833 220.665Z" fill="#263238"/>
<path d="M281.597 262.178C282.476 258.782 283.816 255.295 284.034 251.811C284.252 248.331 282.091 245.327 280.856 242.115C276.063 229.636 278.006 215.978 283.234 203.845C286.229 196.891 290.247 190.307 294.504 183.861C294.613 183.696 294.893 183.849 294.794 184.013C287.644 195.885 281.331 208.568 279.939 221.988C279.27 228.442 279.806 235.014 282.029 241.231C283.081 244.176 285.074 247.025 285.374 250.128C285.687 253.382 284.429 256.675 283.585 259.812C282.541 263.695 279.342 275.428 277.938 279.372C277.817 279.711 277.119 279.644 277.186 279.269C277.825 275.761 280.664 265.771 281.597 262.178Z" fill="#263238"/>
<path d="M275.366 281.879C285.544 281.235 295.774 281.25 305.98 281.333C316.077 281.416 326.174 281.546 336.271 281.725C342.049 281.828 347.848 281.941 353.611 282.284C353.994 282.308 353.972 282.73 353.597 282.749C343.42 283.274 333.178 283.21 322.984 283.281C312.883 283.35 302.782 283.361 292.683 283.224C286.886 283.144 281.124 282.957 275.348 282.545C274.794 282.507 274.826 281.913 275.366 281.879Z" fill="#263238"/>
<path d="M400.432 653.775C395.525 655.044 256.685 651.711 251.481 648.741C249.516 647.631 248.902 630.374 248.862 609.528C248.847 605.022 248.878 600.391 248.934 595.65C248.993 590.06 249.077 584.398 249.198 578.9C249.762 554.214 252.614 530.417 252.614 530.417L341.206 534.433L339.785 580.852L339.267 597.596L338.387 611.455C338.387 611.455 390.871 632.978 396.159 636.766C401.42 640.533 405.315 652.524 400.432 653.775Z" fill="#EB9481"/>
<path d="M400.432 653.775C395.525 655.044 256.685 651.711 251.481 648.741C249.516 647.631 248.902 630.374 248.862 609.528C248.847 605.022 248.878 600.391 248.934 595.65C248.993 590.06 249.077 584.398 249.198 578.9L339.783 580.852L339.265 597.596L338.385 611.455C338.385 611.455 390.869 632.978 396.157 636.766C401.42 640.533 405.315 652.523 400.432 653.775Z" fill="#DBDBDB"/>
<path d="M400.846 653.963C397.654 654.781 338.505 653.688 295.466 652.001C285.508 651.606 276.401 651.175 269.057 650.746C258.936 650.129 252.152 649.514 251.065 648.893C248.661 647.502 248.244 622.197 248.484 595.513L339.325 597.47L338.444 611.403C338.444 611.403 391.221 633.04 396.55 636.847C401.836 640.648 405.752 652.676 400.846 653.963Z" fill="#FFC727"/>
<path d="M341.898 607.056C332.736 605.371 321.432 606.304 314.209 611.72C313.929 611.93 314.284 612.266 314.586 612.192C323.752 609.972 332.289 608.612 341.828 608.044C342.499 608.005 342.553 607.177 341.898 607.056Z" fill="#263238"/>
<path d="M348.432 610.626C339.272 608.941 327.966 609.875 320.745 615.292C320.465 615.501 320.821 615.838 321.12 615.763C330.286 613.543 338.823 612.183 348.362 611.616C349.035 611.575 349.087 610.745 348.432 610.626Z" fill="#263238"/>
<path d="M354.966 614.195C345.806 612.511 334.501 613.443 327.28 618.86C327 619.069 327.353 619.406 327.655 619.331C336.821 617.111 345.358 615.751 354.897 615.184C355.57 615.145 355.623 614.315 354.966 614.195Z" fill="#263238"/>
<path d="M361.5 617.764C352.34 616.079 341.034 617.014 333.814 622.43C333.534 622.64 333.889 622.976 334.189 622.903C343.357 620.683 351.894 619.323 361.431 618.755C362.104 618.715 362.157 617.885 361.5 617.764Z" fill="#263238"/>
<path d="M359.508 589.335C356.028 585.006 349.226 586.753 345.29 589.409C338.917 593.712 333.236 600.538 330.513 607.027C330.445 607.187 330.57 607.287 330.721 607.314C330.729 607.911 331.337 608.558 332.133 608.328C339.816 606.113 348.355 604.557 355.01 600.401C358.896 597.975 362.797 593.43 359.508 589.335ZM342.976 602.943C339.228 604.111 335.435 605.114 331.74 606.4C334.633 602.971 337.339 599.453 340.636 596.273C342.21 594.756 343.859 593.224 345.665 591.901C348.474 589.845 359.472 585.589 357.564 594.151C356.511 598.87 347.442 601.551 342.976 602.943Z" fill="#263238"/>
<path d="M307.172 604.419C314.673 607.355 323.402 607.424 331.453 608.284C332.288 608.374 332.731 607.635 332.598 607.049C332.739 606.997 332.836 606.877 332.733 606.731C328.535 600.84 321.366 595.121 314.107 591.992C309.625 590.06 302.549 589.509 300.162 594.344C297.901 598.918 302.794 602.704 307.172 604.419ZM303.198 598.728C299.314 590.664 311.09 592.959 314.327 594.496C316.408 595.483 318.385 596.704 320.284 597.921C324.264 600.474 327.741 603.459 331.383 606.326C327.459 605.698 323.507 605.361 319.562 604.856C314.855 604.255 305.34 603.175 303.198 598.728Z" fill="#263238"/>
<path d="M398.921 164.03L403.16 186.794L286.725 186.586C286.725 186.586 290.061 113.45 322.637 85.0917C338.93 70.9067 357.421 72.4678 368.874 82.9663C371.772 85.6222 406.018 121.483 409.238 136.902C412.036 150.506 398.921 164.03 398.921 164.03Z" fill="#37474F"/>
<path d="M360.545 77.4838H334.645C335.796 77.0022 336.949 76.5968 338.1 76.2454H357.308C358.415 76.5951 359.501 77.0022 360.545 77.4838Z" fill="#455A64"/>
<path d="M369.648 83.7162H324.257C324.823 83.2719 325.364 82.8647 325.908 82.4592H368.301C368.495 82.6265 368.67 82.7921 368.866 82.9593C369.039 83.1063 369.301 83.3648 369.648 83.7162Z" fill="#455A64"/>
<path d="M375.58 89.9317H317.716C318.085 89.506 318.476 89.0988 318.867 88.6917H374.407C374.776 89.0802 375.167 89.506 375.58 89.9317Z" fill="#455A64"/>
<path d="M381.209 96.1461H312.741C313.045 95.7203 313.351 95.3132 313.654 94.906H380.101C380.47 95.3132 380.84 95.7389 381.209 96.1461Z" fill="#455A64"/>
<path d="M386.619 102.379H308.72C308.958 101.953 309.198 101.527 309.48 101.122H385.553C385.903 101.529 386.25 101.953 386.619 102.379Z" fill="#455A64"/>
<path d="M391.746 108.594H305.329C305.545 108.187 305.742 107.761 305.96 107.354H390.747C391.095 107.761 391.42 108.168 391.746 108.594Z" fill="#455A64"/>
<path d="M396.593 114.808H302.441C302.616 114.401 302.811 113.975 302.985 113.57H395.682C395.984 113.975 396.287 114.382 396.593 114.808Z" fill="#455A64"/>
<path d="M401.112 121.041H299.942C300.095 120.615 300.246 120.189 300.421 119.784H400.221C400.525 120.209 400.807 120.615 401.112 121.041Z" fill="#455A64"/>
<path d="M405.046 127.256H297.749C297.88 126.83 298.009 126.423 298.162 126.016H404.308C404.568 126.423 404.808 126.849 405.046 127.256Z" fill="#455A64"/>
<path d="M408.154 133.47H295.793C295.924 133.063 296.053 132.656 296.162 132.23H407.632C407.826 132.656 408.001 133.063 408.154 133.47Z" fill="#455A64"/>
<path d="M409.585 139.703H294.097C294.206 139.277 294.313 138.87 294.422 138.444H409.478C409.542 138.87 409.564 139.296 409.585 139.703Z" fill="#455A64"/>
<path d="M409.282 144.678C409.217 145.085 409.129 145.493 409.044 145.918H292.599C292.686 145.511 292.773 145.085 292.88 144.678H409.282Z" fill="#455A64"/>
<path d="M407.434 150.892C407.26 151.318 407.087 151.725 406.89 152.132H291.271C291.336 151.725 291.423 151.318 291.509 150.892H407.434Z" fill="#455A64"/>
<path d="M404.175 157.108C403.915 157.552 403.653 157.977 403.371 158.365H290.098C290.163 157.958 290.25 157.532 290.314 157.108H404.175Z" fill="#455A64"/>
<path d="M398.918 164.025L399.027 164.579H289.1C289.143 164.172 289.209 163.746 289.294 163.339H399.525C399.156 163.785 398.918 164.025 398.918 164.025Z" fill="#455A64"/>
<path d="M400.179 170.795H288.231C288.275 170.387 288.341 169.98 288.384 169.556H399.941L400.179 170.795Z" fill="#455A64"/>
<path d="M401.331 177.027H287.493C287.559 176.62 287.602 176.194 287.624 175.77H401.114L401.331 177.027Z" fill="#455A64"/>
<path d="M402.503 183.241H286.948C286.97 182.871 287.014 182.445 287.057 182.003H402.264L402.503 183.241Z" fill="#455A64"/>
<path d="M379.369 156.77C373.188 157.358 366.989 158.127 360.971 159.487C357.976 160.164 355.041 160.953 352.107 161.801C350.644 162.224 349.175 162.602 347.697 162.976C346.178 163.359 344.549 163.717 342.959 163.773C342.816 163.778 342.822 163.961 342.965 163.962C344.513 163.988 345.994 164.008 347.536 163.856C349.001 163.712 350.458 163.435 351.887 163.124C354.931 162.462 357.938 161.68 360.975 160.992C367.101 159.603 373.224 158.216 379.454 157.206C379.738 157.159 379.663 156.743 379.369 156.77Z" fill="#263238"/>
<path d="M394.755 161.337C389.664 160.933 384.471 160.732 379.356 160.822C376.784 160.867 374.235 161.04 371.675 161.269C370.454 161.379 369.236 161.508 368.019 161.649C366.679 161.805 365.363 162.112 364.023 162.251C363.884 162.266 363.884 162.452 364.029 162.44C365.298 162.342 366.592 162.422 367.866 162.386C369.146 162.351 370.427 162.307 371.707 162.269C374.269 162.198 376.832 162.15 379.394 162.057C384.525 161.871 389.634 161.729 394.767 161.695C395.043 161.693 395.019 161.357 394.755 161.337Z" fill="#263238"/>
<path d="M396.901 113.94C394.482 110.848 391.933 107.837 389.297 104.882C388.736 103.685 388.102 102.505 387.463 101.338C386.725 99.9897 385.75 98.7412 384.774 97.5112C384.718 97.4419 384.599 97.5062 384.645 97.5788C385.443 98.8797 386.143 100.223 386.967 101.512C387.438 102.25 387.868 103.002 388.287 103.759C385.639 100.833 382.91 97.9606 380.109 95.1375C380.066 95.0935 379.98 95.1544 380.018 95.2017C385.173 101.699 390.621 108.025 395.577 114.636C400.526 121.237 404.97 127.99 408.908 135.067C408.991 135.217 409.271 135.102 409.215 134.949C406.512 127.49 401.971 120.419 396.901 113.94Z" fill="#263238"/>
<path d="M341.609 80.0047C342.05 81.9746 352.365 95.0226 362.859 94.9769C366.277 94.9567 366.982 79.0737 366.982 79.0737L367.349 77.9114L372.47 61.6365L350.406 48.45L347.211 46.6946C347.211 46.6946 346.155 51.2258 344.906 56.8789C344.847 57.1407 344.787 57.4026 344.728 57.6831C344.648 58.0007 344.567 58.3014 344.507 58.6005C344.307 59.4435 344.108 60.3035 343.932 61.1651C343.793 61.8189 343.656 62.4576 343.539 63.1486C343.402 63.8413 343.287 64.5137 343.15 65.2064C341.971 72.0539 341.435 79.1684 341.609 80.0047Z" fill="#EB9481"/>
<path d="M372.462 61.6432L369.068 72.4391C358.033 75.176 347.195 72.2025 342.372 70.4792C342.571 68.7729 342.848 66.982 343.146 65.208C343.285 64.5153 343.404 63.8395 343.543 63.1468C343.662 62.4541 343.801 61.829 343.94 61.1701C344.119 60.3085 344.317 59.4469 344.516 58.6021C344.575 58.298 344.655 58.0108 344.734 57.6898C344.794 57.4026 344.853 57.1491 344.913 56.8788C346.163 51.219 347.215 46.6912 347.215 46.6912L350.411 48.4482L372.462 61.6432Z" fill="#263238"/>
<path d="M377.953 46.2302C381.631 59.9743 403.242 72.5323 403.566 98.9154C403.71 110.769 384.168 127.184 392.176 148.737C394.253 154.321 350.602 129.122 369.718 80.2938C375.714 64.9735 377.953 46.2302 377.953 46.2302Z" fill="#263238"/>
<path d="M370.613 83.0122C363.098 99.1689 359.129 119.793 371.598 134.976C375.242 139.414 380.184 142.707 385.188 145.964C385.277 146.024 385.368 145.897 385.281 145.838C380.895 142.903 376.486 139.879 373.132 136.044C369.96 132.416 367.733 128.216 366.322 123.871C363.509 115.212 364.039 106.103 366.221 97.3881C367.437 92.5275 369.265 87.8526 370.99 83.1136C371.068 82.9041 370.706 82.8129 370.613 83.0122Z" fill="#263238"/>
<path d="M392.135 66.5785C387.895 61.8141 383.257 57.2035 380.246 51.7549C380.212 51.6924 380.103 51.7431 380.135 51.8056C384.769 60.7481 393.445 67.5584 398.608 76.2678C403.419 84.3858 405.914 93.5614 404.721 102.653C404.082 107.53 402.369 112.168 399.763 116.537C399.677 116.679 399.916 116.812 400.015 116.67C404.925 109.601 406.521 101.002 405.473 92.9076C404.213 83.1288 399.036 74.335 392.135 66.5785Z" fill="#263238"/>
<path d="M376.647 56.4551C376.308 60.8867 375.111 65.0902 373.229 69.2277C371.387 73.2758 369.122 77.1734 367.221 81.1995C363.224 89.6605 360.659 98.777 361.53 107.944C362.033 113.227 363.763 118.208 366.616 122.908C366.63 122.932 366.673 122.913 366.659 122.888C361.515 114.293 361.042 103.992 363.184 94.6715C364.198 90.2585 365.778 85.9503 367.727 81.7739C369.583 77.7968 371.731 73.9211 373.507 69.917C375.405 65.6392 377.104 61.0928 377.006 56.4687C377.002 56.2744 376.663 56.2575 376.647 56.4551Z" fill="#263238"/>
<path d="M378.607 61.1334L383.733 59.5317C385.605 58.9472 386.566 57.18 385.879 55.5868C385.192 53.9936 383.118 53.1758 381.244 53.7604L376.118 55.3621C374.246 55.9466 373.285 57.7138 373.972 59.307C374.661 60.9002 376.735 61.7179 378.607 61.1334Z" fill="#FFC727"/>
<path d="M326.635 33.7682C320.333 62.8461 340.082 69.3439 347.45 70.4928C354.139 71.5369 377.068 74.3685 386.867 46.0002C396.666 17.6319 382.774 5.94564 367.626 2.86907C352.477 -0.209184 332.939 4.68865 326.635 33.7682Z" fill="#EB9481"/>
<path d="M335.425 30.0226C336.233 29.786 337.025 29.6813 337.853 29.5174C338.786 29.3316 339.508 29.1035 340.443 29.4042C340.945 29.5647 341.259 30.1797 341.122 30.6105C340.8 31.6107 339.722 32.0804 338.609 32.3423C337.4 32.6261 336.384 32.5822 335.239 32.1547C334.129 31.7374 334.359 30.3351 335.425 30.0226Z" fill="#263238"/>
<path d="M360.621 29.9568C359.946 29.5108 359.235 29.1966 358.513 28.8147C357.699 28.3839 357.103 27.97 356.103 27.9987C355.567 28.0139 355.037 28.5106 355.005 28.955C354.932 29.9906 355.776 30.7289 356.73 31.2814C357.766 31.8812 358.747 32.1177 359.991 32.0265C361.202 31.9369 361.512 30.5448 360.621 29.9568Z" fill="#263238"/>
<path d="M353.448 38.3436C353.48 38.2658 353.623 38.4652 353.605 38.5497C353.175 40.6142 353.089 43.0421 355.175 44.0034C355.239 44.0338 355.215 44.1368 355.136 44.1166C352.5 43.461 352.651 40.2409 353.448 38.3436Z" fill="#263238"/>
<path d="M355.996 36.4463C359.959 36.6777 359.124 43.407 355.452 43.1924C351.839 42.9812 352.673 36.252 355.996 36.4463Z" fill="#263238"/>
<path d="M357.503 36.9412C358.146 37.3838 358.74 38.1171 359.563 38.2624C360.516 38.4296 361.332 37.791 362.044 37.1693C362.118 37.1051 362.179 37.1693 362.169 37.2588C362.032 38.5496 361.284 39.8201 359.637 39.8674C358.134 39.9096 357.211 38.6729 356.995 37.3416C356.955 37.0949 357.243 36.7621 357.503 36.9412Z" fill="#263238"/>
<path d="M339.984 36.6069C339.974 36.5258 339.782 36.6897 339.774 36.7758C339.613 38.8691 339.014 41.2429 336.715 41.7497C336.644 41.7649 336.64 41.8713 336.723 41.868C339.466 41.77 340.226 38.6106 339.984 36.6069Z" fill="#263238"/>
<path d="M338.046 34.2466C334.132 33.6637 333.052 40.3676 336.677 40.9083C340.244 41.4388 341.325 34.7348 338.046 34.2466Z" fill="#263238"/>
<path d="M336.332 34.4948C335.653 34.777 334.933 35.3514 334.182 35.3058C333.313 35.2534 332.793 34.4543 332.354 33.694C332.309 33.6146 332.237 33.6636 332.221 33.7531C331.973 35.0304 332.255 36.4225 333.662 36.8365C334.945 37.2149 336.092 36.2283 336.655 34.9949C336.761 34.7668 336.606 34.3816 336.332 34.4948Z" fill="#263238"/>
<path d="M352.678 55.8753C352.055 56.3349 351.419 56.9802 350.522 56.9988C349.663 57.0157 348.682 56.6356 347.916 56.3382C347.841 56.3078 347.757 56.3737 347.803 56.4396C348.385 57.2759 349.693 57.847 350.844 57.7354C351.967 57.6273 352.577 56.8366 352.906 55.9834C352.954 55.8635 352.767 55.8077 352.678 55.8753Z" fill="#263238"/>
<path d="M342.006 46.105C342.006 46.105 341.071 49.1647 340.869 50.6312C340.851 50.768 345.803 50.9065 350.652 52.8613C351.379 53.1553 351.448 52.6112 350.656 52.0909C349.074 51.0501 347.006 49.9604 342.526 49.5043C342.461 49.087 344.067 44.8176 343.797 44.7737C342.864 44.6115 340.932 44.9714 339.779 45.1369C341.508 38.7168 344.43 32.5857 346.039 26.1707C346.093 25.9409 345.712 25.8328 345.603 26.0304C342.004 32.2714 339.825 39.6224 337.84 46.2131C337.582 47.0325 341.282 46.2858 342.006 46.105Z" fill="#263238"/>
<path d="M385.384 46.5561C379.66 46.2858 379.942 36.0289 379.942 36.0289C379.942 36.0289 368.425 34.7516 366.834 20.2321C366.834 20.2321 366.056 26.8194 370.105 32.4607C370.105 32.4607 350.093 28.3265 343.811 12.8997C343.811 12.8997 346.068 20.6511 348.855 23.633C348.855 23.633 340.657 20.646 337.428 14.2918C337.428 14.2918 332.569 22.2341 329.471 24.2294C329.471 24.2294 335.04 -5.90607 367.439 1.03944C367.439 1.03944 387.859 4.54007 393.085 19.2606C398.311 33.9778 385.384 46.5561 385.384 46.5561Z" fill="#263238"/>
<path d="M380.955 47.3806C380.955 47.3806 389.539 38.8115 394.178 41.5029C398.817 44.1942 391.637 57.0479 385.681 58.3995C379.726 59.7494 378.148 55.083 378.148 55.083L380.955 47.3806Z" fill="#EB9481"/>
<path d="M392.015 45.1436C392.108 45.1436 392.114 45.2568 392.031 45.277C387.843 46.338 385.36 49.3454 383.5 52.5233C384.842 51.3525 386.555 50.7899 388.415 52.1685C388.512 52.2411 388.397 52.3729 388.284 52.3425C386.666 51.9066 385.447 52.0519 384.205 53.0859C383.325 53.8191 382.67 54.7821 382.001 55.6556C381.779 55.9479 381.146 55.73 381.323 55.387C381.337 55.3616 381.35 55.3363 381.364 55.3109C381.757 50.9267 386.446 45.1317 392.015 45.1436Z" fill="#263238"/>
<path d="M381.868 56.7321C381.77 57.5329 382.453 58.2493 383.394 58.3321C384.335 58.4149 385.176 57.8337 385.274 57.0329C385.371 56.232 384.686 55.5157 383.747 55.4329C382.806 55.3501 381.967 55.9313 381.868 56.7321Z" fill="white"/>
<path d="M316.463 89.5216C271.798 116.204 226.031 170.763 231.902 186.005C238.443 202.985 288.846 171.568 289.213 168.875C289.491 166.84 314.532 132.68 332.888 100.551C349.845 70.8712 327.509 82.9224 316.463 89.5216Z" fill="#EB9481"/>
<path d="M315.441 140.553L263.606 125.569C263.606 125.569 307.208 90.233 323.476 82.9209C341.784 74.6913 342.723 84.46 337.076 100.507C331.427 116.555 315.441 140.553 315.441 140.553Z" fill="#455A64"/>
<path d="M317.136 132.693C315.431 131.95 299.32 127.167 295.793 126.192C292.264 125.217 277.887 121.114 274.148 120.365C273.981 120.331 273.89 120.519 274.051 120.581C277.544 121.908 292.03 126.082 295.598 127.138C299.167 128.194 315.232 132.626 317.076 132.905C317.233 132.928 317.251 132.744 317.136 132.693Z" fill="#263238"/>
<path d="M333.266 113.71C332.172 114.954 331.118 116.224 330.054 117.486C331.489 114.663 332.833 111.804 334.052 108.931C334.087 108.844 333.928 108.797 333.879 108.873C330.473 114.065 327.281 119.421 324.316 124.803C321.398 130.097 318.187 135.273 315.682 140.722C315.608 140.882 315.898 140.955 315.995 140.826C319.816 135.821 322.835 130.394 325.941 125.05C327.007 123.217 328.024 121.35 329.014 119.473C330.701 117.714 332.227 115.852 333.414 113.803C333.46 113.725 333.333 113.634 333.266 113.71Z" fill="#263238"/>
<path d="M319.758 81.226C317.678 79.7714 329.587 77.7305 332.947 79.1733C336.308 80.6161 353.177 103.546 354.721 135.952C356.266 168.358 281.665 205.706 277.759 201.401C276.119 199.594 276.004 194.723 277.594 192.66C279.835 189.749 334.057 161.401 335.786 140.911C337.326 122.691 328.664 87.4552 319.758 81.226Z" fill="#263238"/>
<path d="M490.823 209.82L506.245 145.444L530.428 88.3408L483.109 93.9347L450.349 86.6783L412.875 94.5683L371.662 84.4854L368.28 146.103L346.692 207.426L377.567 215.575L418.171 206.991L448.482 217.302L490.823 209.82Z" fill="#DBDBDB"/>
<path d="M448.482 217.301L483.109 93.9346L450.349 86.6782L418.171 206.99L448.482 217.301Z" fill="#EBEBEB"/>
<path d="M377.567 215.575L412.875 94.5683L371.662 84.4854L368.28 146.103L346.692 207.426L377.567 215.575Z" fill="#EBEBEB"/>
<path d="M232.66 188.011C239.907 194.15 259.377 199.08 318.093 189.984C326.217 188.725 326.697 136.596 317.94 137.561C306.91 138.776 270.726 145.86 267.747 146.823C245.566 154.001 225.424 181.88 232.66 188.011Z" fill="#EB9481"/>
<path d="M390.704 130.183C393.924 135.109 389.21 139.346 389.21 139.346C389.21 139.346 393.91 141.408 395.521 145.508C397.369 150.203 389.529 154.728 389.529 154.728C389.529 154.728 393.779 157.654 394.972 162.129C396.208 166.774 389.063 172.3 389.063 172.3C389.063 172.3 391.262 176.875 389.033 181.374C385.218 189.065 370.429 191.086 361.044 192.452C351.66 193.819 323.535 190.21 318.092 189.986L310.802 138.481C310.802 138.481 347.313 122.468 358.617 122.196C368.138 121.965 387.092 124.653 390.704 130.183Z" fill="#EB9481"/>
<path d="M388.621 138.586C378.429 136.763 368.157 137.603 357.85 137.947C357.619 137.954 357.637 138.262 357.867 138.252C368.115 137.809 378.333 139.103 388.579 139.007C388.861 139.003 388.895 138.637 388.621 138.586Z" fill="#263238"/>
<path d="M389.195 154.085C386.874 153.732 384.423 154.031 382.095 154.209C379.588 154.4 377.087 154.628 374.588 154.888C369.588 155.41 364.6 156.028 359.64 156.772C359.42 156.804 359.424 157.099 359.658 157.076C364.642 156.564 369.636 156.114 374.642 155.78C377.147 155.613 379.653 155.464 382.162 155.329C384.494 155.204 386.968 155.238 389.226 154.672C389.56 154.589 389.546 154.139 389.195 154.085Z" fill="#263238"/>
<path d="M388.849 172.315C386.846 171.938 384.468 172.471 382.465 172.716C380.193 172.994 377.918 173.261 375.644 173.518C371.092 174.032 366.541 174.542 361.972 174.92C361.744 174.939 361.759 175.241 361.99 175.224C366.634 174.861 371.285 174.552 375.925 174.152C378.204 173.956 380.481 173.75 382.759 173.532C384.694 173.347 387.138 173.304 388.89 172.508C388.988 172.464 388.95 172.335 388.849 172.315Z" fill="#263238"/>
<path d="M310.801 138.48C305.51 139.586 300.202 140.587 294.903 141.612C289.607 142.644 284.292 143.594 279.044 144.744C273.738 145.797 268.593 146.966 263.746 149.026C258.862 150.977 254.134 153.258 249.499 155.687C253.721 152.748 258.31 150.196 263.145 147.998C267.936 145.691 273.391 144.447 278.627 143.298C283.946 142.261 289.272 141.288 294.637 140.494C300.004 139.698 305.383 138.982 310.801 138.48Z" fill="#263238"/>
<path d="M0 612.364H179.192C181.297 607.868 183.266 603.194 184.265 597.9C185.784 589.891 184.373 579.27 178.676 575.607C175.009 573.256 171.062 575.214 167.269 575.36C166.115 575.402 164.858 575.189 164.225 573.594C163.789 572.501 163.742 571.079 163.949 569.868C164.432 567.021 166.303 565.2 167.859 563.639C168.079 563.413 168.191 562.875 167.948 562.574C164.684 558.463 159.757 558.339 156.381 562.175C154.436 559.122 155.285 554.509 156.56 551.176C157.934 547.593 160.147 544.899 161.727 541.531C162.983 538.864 163.841 535.729 163.467 532.45C163.073 529.061 161.455 526.331 159.678 524.263C156.607 520.674 151.309 516.619 147.68 520.894C143.737 525.548 146.255 534.252 143.675 539.93C143.004 541.428 141.927 543.031 140.619 543.105C139.357 543.187 138.484 541.833 137.82 540.444C136.896 538.533 136.155 536.231 134.589 535.425C135.017 529.601 136.038 523.911 136.422 518.081C136.971 509.667 135.686 498.756 129.681 495.167C127.364 493.785 124.603 493.654 122.333 495.311C119.834 497.14 118.662 500.94 118.54 504.9C118.39 509.878 119.543 514.779 119.136 519.763C118.887 522.809 117.875 526.019 115.39 525.318C113.646 524.822 112.244 523.111 110.814 521.662C108.981 519.792 105.821 517.735 103.894 520.493C102.754 522.115 102.914 524.685 101.93 526.432C100.94 528.186 99.2474 528.536 97.7941 528.563C94.7937 528.633 91.8956 527.553 88.8766 527.93C86.0447 528.281 83.2127 529.374 80.7319 531.471C78.313 533.52 76.4322 536.469 75.2508 540.189C74.242 543.379 72.485 550.823 69.2171 547.538C67.8486 546.156 67.0413 543.578 66.2067 541.535C65.3577 539.459 64.5144 537.37 63.5863 535.368C61.871 531.675 59.8262 528.184 57.1022 526.04C51.6959 521.784 44.5599 523.97 40.889 531.224C39.0845 534.779 38.142 539.295 38.3103 543.721C38.5118 548.905 40.912 553.277 41.0631 558.406C41.1293 560.778 40.6602 563.603 39.1637 564.897C37.3218 566.498 35.0381 565.049 33.1487 564.409C31.1183 563.721 27.9352 564.099 27.0761 567.49C26.6876 569.043 27.0948 570.57 27.7237 571.849C28.1223 572.653 28.6144 573.362 28.9655 574.214C29.4533 575.417 29.3598 575.94 28.6 576.676C26.3768 578.869 23.3621 578.086 20.8309 578.443C5.94017 580.533 0.674888 606.245 0 612.364Z" fill="#37474F"/>
<path d="M126.687 569.467C128.871 583.979 131.043 598.238 128.473 612.364H130.53C131.29 609.566 132.017 606.741 132.767 603.929C140.133 598.89 148.07 602.945 155.848 601.542C161.925 600.449 168.395 596.118 172.263 588.969C172.535 588.467 172.126 587.876 171.785 588.269C168.339 592.29 164.799 595.438 160.931 597.377C161.757 595.955 162.548 594.47 163.443 593.136C164.751 591.184 166.204 589.535 167.612 587.739C167.692 587.642 167.589 587.456 167.5 587.532C165.915 588.942 164.462 590.798 163.102 592.634C161.902 594.25 160.608 595.983 159.656 597.968C157.175 599.021 154.559 599.591 151.737 599.576C145.623 599.534 138.787 597.561 133.254 602.12C133.723 600.416 134.201 598.711 134.712 597.033C136.869 589.959 139.429 583.255 142.275 576.74C145.097 570.277 148.018 563.89 150.078 556.809C152.061 549.984 153.107 542.827 153.782 535.499C153.815 535.121 153.425 534.942 153.379 535.34C151.803 548.19 147.551 559.272 142.927 570.127C144.348 563.85 145.51 557.451 147.31 551.325C147.441 550.887 147.015 550.494 146.86 550.939C144.366 558.295 141.694 566.511 140.934 574.754C140.621 575.482 140.305 576.206 139.992 576.934C136.714 584.517 133.869 592.718 131.585 601.215C131.899 592.183 130.586 582.688 129.335 574.404C127.914 565.04 126.54 555.78 126.353 546.15C126.334 545.297 126.334 544.451 126.334 543.605C129.845 533.038 131.562 519.818 130.68 508.316C130.62 507.552 129.86 507.512 129.85 508.316C129.789 514.944 129.723 521.398 128.855 527.943C128.278 532.323 127.375 536.503 126.352 540.647C126.474 533.003 127.101 525.529 127.767 517.872C127.824 517.227 127.13 517.144 127.022 517.72C123.741 534.838 124.098 552.266 126.687 569.467Z" fill="#455A64"/>
<path d="M86.8558 549.895C88.2113 553.813 89.754 557.801 91.4419 561.472C91.8635 564.662 92.4636 567.762 93.2608 570.669C94.3717 574.725 95.9618 578.383 98.0152 581.552C100.482 585.367 102.942 588.673 103.66 593.782C101.715 599.681 100.139 605.943 100.116 612.364H101.593C102.849 600.601 106.928 590.984 110.604 580.265C113.83 570.861 116.511 558.624 113.305 548.428C113.122 547.838 112.53 548.27 112.625 548.848C114.815 562.453 110.909 573.866 106.582 585.587C105.915 587.395 105.226 589.258 104.555 591.155C104.213 588.832 103.337 586.631 102.309 584.734C100.119 580.67 97.5274 577.379 95.8582 572.718C92.1815 562.447 92.773 551.338 91.7369 540.235C91.6808 539.624 91.1181 539.885 91.0764 540.366C90.5512 546.114 90.5238 552.334 91.0951 558.364C90.0547 555.222 88.8215 552.157 87.499 549.344C87.2256 548.76 86.6357 549.262 86.8558 549.895Z" fill="#455A64"/>
<path d="M48.5544 542.675C49.1257 548.27 51.0353 554.018 53.3506 558.499C55.217 562.101 58.1237 564.399 59.9469 567.973C61.4996 572.75 63.2667 577.358 65.0439 581.956C66.9246 586.829 70.3883 593.417 68.7291 599.259C68.6442 599.561 68.804 599.755 68.9781 599.774C67.0786 603.445 65.7619 607.631 65.8554 612.362H66.7275C67.6974 595.347 84.2012 590.838 84.3465 573.273C84.3566 572.469 83.4788 572.269 83.3766 573.081C82.1535 582.616 77.071 587.965 72.4993 594.172C71.5481 595.463 70.6185 596.845 69.771 598.318C70.915 594.778 70.0904 590.887 68.9407 587.38C67.116 581.818 64.8669 576.546 62.9113 571.087C60.8665 565.373 58.954 559.565 57.6273 553.406C56.253 547.013 56.0242 540.826 55.9106 534.184C55.9062 533.8 55.5076 533.703 55.4414 534.087C53.9032 543.567 55.9854 554.408 58.531 563.331C57.5798 562.012 56.548 560.774 55.699 559.398C52.6512 554.454 51.0899 548.393 49.4265 542.322C49.2063 541.527 48.471 541.831 48.5544 542.675Z" fill="#455A64"/>
<path d="M15.2955 593.795C19.221 594.622 23.0128 595.97 26.9974 596.293C31.074 596.622 35.1234 596.289 39.1583 595.379C44.1257 594.259 49.1205 592.558 54.0346 593.326C52.5525 592.322 51.0775 591.294 49.686 590.037C45.0668 585.87 40.6203 578.955 38.7324 571.391C38.541 570.625 39.2749 570.341 39.5555 570.883C41.832 575.255 43.717 579.715 46.5475 583.437C49.6845 587.562 53.3281 589.972 57.0479 592.725C59.7892 594.755 62.4844 597.158 64.3666 600.8C64.876 601.787 67.3295 606.79 65.8301 607.862C65.7495 607.919 65.6415 607.919 65.5768 607.813C65.5466 607.763 65.5164 607.714 65.4861 607.663C65.4243 607.562 65.4387 607.358 65.5466 607.332C65.8732 607.25 62.929 601.287 62.8816 601.22C61.7822 599.608 60.5245 598.24 59.1862 597.082C58.507 596.493 57.8077 595.957 57.1011 595.443C50.3968 593.546 43.5343 597.133 36.8717 598.304C29.8883 599.532 21.5925 599.416 14.9933 595.396C14.3155 594.987 14.5659 593.641 15.2955 593.795Z" fill="#455A64"/>
<path d="M102.554 607.138C104.531 602.912 107.762 600.548 110.65 597.894C114.753 594.126 117.521 589.794 119.11 582.998C119.244 582.422 119.945 582.464 119.887 583.152C118.77 596.546 109.326 600.397 103.141 607.803C102.839 608.163 102.295 607.693 102.554 607.138Z" fill="#455A64"/>
<path d="M143.547 598.681C144.958 593.575 148.329 589.965 151.062 586.435C152.609 584.437 154.13 582.376 155.36 579.937C157.084 576.518 157.932 572.529 158.906 568.579C159.017 568.127 159.477 568.302 159.401 568.779C158.37 575.214 156.773 580.996 153.534 585.709C150.381 590.296 146.938 594.164 143.953 599.025C143.798 599.279 143.457 599.015 143.547 598.681Z" fill="#455A64"/>
<path d="M135.062 547.842C135.62 549.26 136.959 549.025 137.281 547.399C137.307 547.27 137.317 547.143 137.323 547.017C137.326 546.994 137.331 546.972 137.334 546.951C137.38 546.572 137.344 546.228 137.257 545.934C137.121 545.316 136.8 544.789 136.347 544.662C135.245 544.35 134.484 546.377 135.062 547.842Z" fill="#455A64"/>
<path d="M21.2721 588.735C21.8304 590.153 23.1687 589.919 23.491 588.29C23.5155 588.163 23.527 588.034 23.5327 587.908C23.5356 587.885 23.5414 587.863 23.5443 587.84C23.5889 587.46 23.5543 587.116 23.4666 586.823C23.3313 586.205 23.0104 585.678 22.5571 585.551C21.4548 585.243 20.6936 587.268 21.2721 588.735Z" fill="#455A64"/>
<path d="M132.019 550.456C132.006 550.407 131.993 550.361 131.984 550.306V550.298C131.927 549.924 131.984 549.515 132.174 549.232C132.216 549.169 132.272 549.118 132.331 549.074C132.638 548.755 133.056 548.757 133.265 549.399C133.592 550.41 132.8 551.741 132.207 550.893C132.141 550.798 132.089 550.684 132.05 550.561C132.045 550.547 132.039 550.534 132.035 550.519C132.027 550.496 132.025 550.475 132.019 550.456Z" fill="#455A64"/>
<path d="M61.3586 542.354C61.373 542.307 61.3859 542.261 61.4061 542.213L61.4104 542.206C61.5485 541.881 61.786 541.649 62.0565 541.645C62.1155 541.643 62.1802 541.666 62.2436 541.696C62.6134 541.786 62.9113 542.221 62.7501 542.89C62.4968 543.945 61.2953 544.073 61.2823 542.858C61.2809 542.721 61.2996 542.588 61.3298 542.459C61.3327 542.445 61.3355 542.428 61.3399 542.413C61.3442 542.392 61.3528 542.373 61.3586 542.354Z" fill="#455A64"/>
<path d="M131.69 544.09C131.926 543.917 132.162 544.092 132.305 544.407C132.364 544.539 132.37 544.687 132.345 544.826C132.324 545.573 131.649 545.829 131.454 545.065C131.358 544.685 131.459 544.257 131.69 544.09Z" fill="#455A64"/>
<path d="M106.726 524.278C106.962 524.107 107.198 524.28 107.34 524.594C107.399 524.727 107.405 524.875 107.38 525.014C107.359 525.761 106.684 526.016 106.49 525.253C106.393 524.875 106.493 524.447 106.726 524.278Z" fill="#455A64"/>
<path d="M59.0572 536.362C59.3076 536.484 59.3925 536.851 59.3421 537.22C59.3205 537.374 59.2529 537.486 59.1694 537.56C58.7953 538.069 58.1938 537.554 58.4226 536.809C58.5348 536.442 58.8111 536.241 59.0572 536.362Z" fill="#455A64"/>
<path d="M642.475 612.364H451.011C448.762 607.56 446.658 602.565 445.59 596.909C443.967 588.351 445.475 577.001 451.562 573.087C455.479 570.577 459.698 572.668 463.75 572.824C464.982 572.868 466.325 572.64 467.001 570.935C467.467 569.768 467.518 568.247 467.296 566.954C466.781 563.913 464.781 561.966 463.117 560.299C462.883 560.056 462.762 559.485 463.022 559.16C466.509 554.767 471.774 554.634 475.38 558.733C477.46 555.471 476.553 550.543 475.19 546.981C473.723 543.154 471.358 540.276 469.67 536.676C468.328 533.825 467.411 530.477 467.811 526.972C468.231 523.352 469.96 520.436 471.859 518.224C475.14 514.391 480.801 510.057 484.679 514.625C488.893 519.598 486.202 528.897 488.957 534.965C489.674 536.566 490.825 538.277 492.224 538.358C493.571 538.446 494.503 536.999 495.214 535.516C496.201 533.473 496.993 531.013 498.666 530.154C498.21 523.932 497.118 517.851 496.708 511.622C496.122 502.632 497.495 490.974 503.911 487.141C506.386 485.664 509.336 485.524 511.761 487.295C514.43 489.249 515.684 493.31 515.813 497.541C515.974 502.86 514.741 508.097 515.177 513.422C515.442 516.676 516.524 520.107 519.18 519.358C521.044 518.828 522.542 517.001 524.07 515.45C526.029 513.452 529.406 511.255 531.464 514.201C532.681 515.935 532.511 518.682 533.563 520.548C534.621 522.421 536.428 522.795 537.982 522.824C541.188 522.898 544.284 521.744 547.51 522.149C550.536 522.522 553.562 523.691 556.212 525.932C558.796 528.122 560.805 531.272 562.068 535.245C563.145 538.653 565.024 546.61 568.515 543.097C569.978 541.62 570.839 538.866 571.731 536.684C572.638 534.467 573.54 532.232 574.531 530.095C576.365 526.152 578.549 522.419 581.46 520.128C587.236 515.581 594.862 517.916 598.783 525.666C600.711 529.464 601.718 534.29 601.538 539.02C601.323 544.559 598.758 549.23 598.597 554.71C598.527 557.244 599.027 560.263 600.626 561.643C602.595 563.354 605.035 561.805 607.054 561.122C609.223 560.388 612.624 560.791 613.541 564.413C613.957 566.074 613.521 567.705 612.85 569.07C612.424 569.929 611.898 570.686 611.522 571.598C611.001 572.883 611.101 573.442 611.912 574.227C614.286 576.571 617.508 575.733 620.214 576.115C636.128 578.354 641.753 605.827 642.475 612.364Z" fill="#455A64"/>
<path d="M507.115 566.528C504.781 582.034 502.461 597.27 505.207 612.364H503.008C502.196 609.374 501.419 606.355 500.618 603.353C492.748 597.968 484.266 602.302 475.955 600.804C469.462 599.635 462.549 595.008 458.416 587.37C458.126 586.834 458.562 586.201 458.927 586.621C462.609 590.919 466.391 594.282 470.524 596.354C469.642 594.833 468.796 593.246 467.839 591.822C466.441 589.735 464.887 587.973 463.385 586.055C463.3 585.952 463.41 585.753 463.506 585.836C465.2 587.342 466.752 589.326 468.206 591.286C469.488 593.012 470.871 594.862 471.888 596.987C474.539 598.111 477.333 598.721 480.349 598.706C486.882 598.662 494.187 596.554 500.097 601.424C499.596 599.603 499.085 597.78 498.538 595.989C496.234 588.431 493.499 581.268 490.458 574.305C487.442 567.401 484.321 560.575 482.122 553.011C480.004 545.717 478.886 538.071 478.165 530.241C478.13 529.838 478.546 529.646 478.595 530.072C480.279 543.801 484.822 555.64 489.762 567.239C488.244 560.533 487.002 553.695 485.078 547.15C484.938 546.679 485.393 546.262 485.559 546.738C488.224 554.598 491.079 563.375 491.89 572.184C492.225 572.963 492.561 573.733 492.897 574.514C496.4 582.616 499.44 591.379 501.88 600.458C501.544 590.807 502.946 580.662 504.284 571.811C505.802 561.808 507.27 551.912 507.47 541.622C507.49 540.71 507.49 539.807 507.49 538.904C503.737 527.614 501.904 513.488 502.847 501.199C502.911 500.385 503.723 500.341 503.733 501.199C503.798 508.28 503.868 515.178 504.795 522.17C505.411 526.85 506.378 531.315 507.47 535.746C507.341 527.578 506.669 519.594 505.958 511.409C505.897 510.719 506.638 510.631 506.755 511.247C510.26 529.53 509.88 548.15 507.115 566.528Z" fill="#37474F"/>
<path d="M549.672 545.616C548.224 549.802 546.576 554.062 544.772 557.986C544.322 561.394 543.68 564.707 542.828 567.815C541.641 572.148 539.943 576.056 537.748 579.443C535.113 583.519 532.483 587.053 531.717 592.509C533.797 598.812 535.48 605.505 535.505 612.364H533.926C532.584 599.797 528.225 589.52 524.298 578.069C520.852 568.019 517.987 554.946 521.413 544.052C521.608 543.421 522.239 543.884 522.139 544.5C519.8 559.037 523.973 571.231 528.598 583.753C529.309 585.686 530.045 587.676 530.762 589.703C531.127 587.22 532.064 584.869 533.162 582.842C535.502 578.501 538.272 574.982 540.055 570.003C543.982 559.029 543.352 547.158 544.458 535.296C544.519 534.642 545.12 534.921 545.165 535.435C545.726 541.575 545.756 548.224 545.145 554.665C546.257 551.308 547.574 548.032 548.987 545.027C549.276 544.405 549.908 544.941 549.672 545.616Z" fill="#37474F"/>
<path d="M590.595 537.904C589.983 543.884 587.944 550.024 585.471 554.813C583.478 558.662 580.371 561.116 578.422 564.935C576.765 570.041 574.875 574.961 572.977 579.875C570.968 585.082 567.266 592.119 569.04 598.363C569.131 598.685 568.96 598.892 568.774 598.913C570.803 602.836 572.21 607.309 572.111 612.362H571.18C570.142 594.183 552.509 589.364 552.354 570.596C552.344 569.737 553.28 569.524 553.391 570.389C554.699 580.578 560.128 586.291 565.014 592.925C566.031 594.305 567.023 595.782 567.929 597.354C566.706 593.571 567.588 589.414 568.816 585.667C570.764 579.725 573.169 574.09 575.258 568.258C577.442 562.154 579.486 555.946 580.903 549.365C582.371 542.533 582.617 535.923 582.736 528.827C582.742 528.416 583.167 528.312 583.237 528.724C584.881 538.854 582.656 550.437 579.936 559.972C580.954 558.563 582.056 557.24 582.962 555.771C586.219 550.49 587.887 544.01 589.665 537.524C589.898 536.676 590.685 537.001 590.595 537.904Z" fill="#37474F"/>
<path d="M626.134 592.522C621.939 593.404 617.888 594.847 613.63 595.191C609.274 595.544 604.947 595.187 600.636 594.214C595.329 593.018 589.992 591.201 584.741 592.02C586.325 590.948 587.899 589.849 589.387 588.507C594.323 584.053 599.073 576.666 601.091 568.585C601.295 567.766 600.512 567.462 600.211 568.04C597.78 572.712 595.765 577.478 592.74 581.455C589.387 585.863 585.496 588.437 581.52 591.379C578.591 593.545 575.711 596.115 573.701 600.006C573.156 601.061 570.535 606.406 572.137 607.553C572.223 607.615 572.338 607.615 572.407 607.503C572.44 607.45 572.472 607.395 572.505 607.342C572.571 607.235 572.555 607.015 572.442 606.988C572.092 606.901 575.239 600.529 575.288 600.458C576.464 598.734 577.806 597.276 579.235 596.037C579.962 595.409 580.709 594.837 581.463 594.286C588.626 592.258 595.958 596.092 603.078 597.343C610.539 598.656 619.403 598.531 626.454 594.237C627.18 593.797 626.912 592.358 626.134 592.522Z" fill="#37474F"/>
<path d="M532.897 606.781C530.785 602.266 527.333 599.74 524.248 596.904C519.864 592.878 516.906 588.249 515.208 580.987C515.064 580.371 514.317 580.417 514.377 581.151C515.572 595.463 525.661 599.578 532.271 607.49C532.592 607.876 533.174 607.372 532.897 606.781Z" fill="#37474F"/>
<path d="M489.098 597.744C487.591 592.288 483.988 588.431 481.07 584.661C479.418 582.525 477.792 580.323 476.478 577.717C474.636 574.064 473.731 569.8 472.691 565.58C472.571 565.099 472.08 565.285 472.163 565.793C473.263 572.668 474.97 578.848 478.432 583.882C481.802 588.783 485.48 592.915 488.669 598.109C488.83 598.382 489.196 598.101 489.098 597.744Z" fill="#37474F"/>
<path d="M498.165 543.424C497.567 544.938 496.137 544.687 495.795 542.949C495.767 542.812 495.756 542.677 495.75 542.539C495.747 542.514 495.74 542.493 495.737 542.468C495.688 542.061 495.727 541.695 495.819 541.381C495.964 540.719 496.307 540.157 496.79 540.022C497.969 539.693 498.782 541.86 498.165 543.424Z" fill="#37474F"/>
<path d="M619.747 587.116C619.15 588.631 617.719 588.38 617.377 586.642C617.349 586.504 617.338 586.369 617.332 586.232C617.328 586.207 617.322 586.186 617.319 586.16C617.27 585.753 617.309 585.388 617.401 585.074C617.546 584.413 617.889 583.85 618.372 583.715C619.551 583.384 620.364 585.551 619.747 587.116Z" fill="#37474F"/>
<path d="M501.415 546.215C501.428 546.164 501.442 546.114 501.451 546.055C501.451 546.05 501.451 546.048 501.452 546.044C501.514 545.645 501.452 545.207 501.249 544.905C501.205 544.837 501.146 544.784 501.081 544.736C500.754 544.396 500.305 544.398 500.084 545.082C499.734 546.162 500.58 547.584 501.215 546.677C501.285 546.576 501.341 546.453 501.383 546.323C501.389 546.308 501.395 546.293 501.4 546.276C501.408 546.259 501.41 546.236 501.415 546.215Z" fill="#37474F"/>
<path d="M576.915 537.56C576.899 537.509 576.886 537.459 576.865 537.408C576.865 537.408 576.862 537.404 576.86 537.4C576.712 537.054 576.459 536.805 576.17 536.798C576.106 536.796 576.037 536.819 575.97 536.853C575.574 536.95 575.257 537.414 575.428 538.13C575.699 539.256 576.983 539.393 576.997 538.096C576.998 537.95 576.98 537.807 576.947 537.67C576.944 537.653 576.941 537.636 576.937 537.619C576.929 537.6 576.922 537.581 576.915 537.56Z" fill="#37474F"/>
<path d="M501.767 539.415C501.513 539.231 501.261 539.417 501.11 539.754C501.047 539.896 501.041 540.054 501.067 540.202C501.09 540.999 501.811 541.274 502.02 540.455C502.122 540.052 502.016 539.594 501.767 539.415Z" fill="#37474F"/>
<path d="M528.443 518.246C528.19 518.062 527.938 518.248 527.787 518.583C527.724 518.725 527.718 518.883 527.744 519.031C527.767 519.828 528.488 520.102 528.695 519.284C528.799 518.885 528.691 518.427 528.443 518.246Z" fill="#37474F"/>
<path d="M579.374 531.159C579.106 531.289 579.017 531.68 579.07 532.076C579.093 532.243 579.165 532.361 579.256 532.439C579.656 532.982 580.298 532.431 580.055 531.638C579.932 531.243 579.636 531.03 579.374 531.159Z" fill="#37474F"/>
<path d="M313.58 660.884H51.6027C48.5247 654.312 45.6467 647.478 44.1861 639.738C41.9658 628.03 44.0278 612.501 52.3567 607.144C57.717 603.707 63.4888 606.57 69.0347 606.781C70.7212 606.842 72.5573 606.53 73.4826 604.199C74.1201 602.601 74.1891 600.521 73.887 598.751C73.1804 594.59 70.4463 591.927 68.1698 589.644C67.8475 589.313 67.6835 588.528 68.0403 588.087C72.8106 582.078 80.0156 581.896 84.95 587.505C87.7948 583.042 86.5544 576.299 84.6895 571.425C82.6807 566.188 79.4458 562.248 77.1362 557.324C75.2986 553.425 74.0452 548.842 74.5935 544.046C75.1691 539.092 77.5334 535.102 80.1322 532.076C84.6219 526.831 92.368 520.9 97.6735 527.152C103.438 533.956 99.7572 546.679 103.527 554.982C104.507 557.172 106.084 559.514 107.997 559.626C109.84 559.746 111.115 557.767 112.089 555.735C113.441 552.942 114.523 549.574 116.812 548.399C116.188 539.885 114.694 531.564 114.131 523.041C113.33 510.74 115.208 494.789 123.988 489.542C127.374 487.523 131.412 487.331 134.729 489.753C138.383 492.426 140.097 497.984 140.275 503.773C140.494 511.051 138.809 518.216 139.404 525.504C139.767 529.956 141.248 534.65 144.881 533.625C147.431 532.901 149.48 530.399 151.571 528.278C154.252 525.544 158.871 522.539 161.689 526.569C163.355 528.941 163.122 532.701 164.561 535.254C166.007 537.817 168.482 538.33 170.606 538.37C174.994 538.471 179.229 536.893 183.643 537.446C187.783 537.959 191.923 539.556 195.55 542.622C199.087 545.618 201.835 549.928 203.562 555.366C205.035 560.029 207.605 570.914 212.384 566.11C214.386 564.09 215.565 560.32 216.785 557.334C218.025 554.3 219.26 551.243 220.617 548.319C223.126 542.921 226.114 537.815 230.097 534.68C238 528.458 248.433 531.654 253.8 542.259C256.439 547.456 257.816 554.058 257.57 560.531C257.275 568.11 253.766 574.501 253.547 582C253.45 585.466 254.137 589.598 256.323 591.488C259.016 593.83 262.355 591.71 265.116 590.775C268.085 589.771 272.739 590.323 273.994 595.278C274.562 597.55 273.966 599.78 273.048 601.65C272.465 602.825 271.746 603.861 271.232 605.108C270.52 606.868 270.656 607.631 271.767 608.705C275.017 611.912 279.424 610.767 283.125 611.288C304.896 614.349 312.593 651.94 313.58 660.884Z" fill="#263238"/>
<path d="M128.367 598.168C125.173 619.386 122 640.23 125.756 660.885H122.747C121.636 656.793 120.574 652.662 119.477 648.552C108.709 641.184 97.1037 647.115 85.7313 645.064C76.847 643.467 67.3885 637.135 61.7332 626.682C61.3361 625.948 61.9318 625.085 62.4326 625.657C67.4705 631.537 72.6466 636.141 78.3018 638.975C77.0959 636.894 75.9375 634.723 74.628 632.774C72.7156 629.919 70.5902 627.507 68.5339 624.885C68.4173 624.743 68.5685 624.473 68.698 624.583C71.0147 626.644 73.1401 629.358 75.1274 632.041C76.8815 634.403 78.7738 636.937 80.1653 639.84C83.7916 641.378 87.6164 642.211 91.7435 642.192C100.682 642.131 110.676 639.247 118.765 645.912C118.078 643.42 117.381 640.926 116.634 638.475C113.481 628.132 109.738 618.333 105.577 608.805C101.449 599.356 97.18 590.02 94.171 579.668C91.2715 569.688 89.7432 559.225 88.7561 548.511C88.7086 547.958 89.277 547.696 89.3461 548.281C91.6485 567.066 97.8664 583.268 104.625 599.137C102.549 589.961 100.848 580.603 98.2161 571.648C98.0247 571.005 98.6477 570.433 98.8737 571.085C102.52 581.839 106.427 593.849 107.538 605.901C107.997 606.967 108.456 608.022 108.915 609.087C113.707 620.173 117.867 632.164 121.205 644.587C120.746 631.381 122.666 617.5 124.495 605.389C126.571 591.699 128.58 578.162 128.855 564.08C128.882 562.833 128.882 561.597 128.882 560.36C123.748 544.911 121.24 525.584 122.528 508.77C122.617 507.654 123.727 507.595 123.741 508.77C123.83 518.459 123.927 527.897 125.194 537.465C126.038 543.867 127.36 549.979 128.855 556.039C128.677 544.863 127.759 533.937 126.784 522.742C126.702 521.797 127.717 521.676 127.874 522.52C132.671 547.544 132.15 573.022 128.367 598.168Z" fill="#455A64"/>
<path d="M186.596 569.555C184.615 575.284 182.36 581.113 179.892 586.481C179.275 591.144 178.398 595.678 177.233 599.93C175.608 605.859 173.284 611.208 170.282 615.839C166.676 621.418 163.077 626.252 162.03 633.719C164.875 642.342 167.177 651.499 167.211 660.886H165.053C163.215 643.69 157.252 629.63 151.879 613.959C147.163 600.208 143.242 582.318 147.93 567.414C148.198 566.548 149.061 567.184 148.925 568.028C145.723 587.918 151.433 604.601 157.76 621.738C158.733 624.382 159.742 627.106 160.722 629.879C161.222 626.482 162.505 623.266 164.005 620.491C167.207 614.552 170.997 609.737 173.438 602.922C178.813 587.905 177.948 571.665 179.463 555.431C179.545 554.536 180.368 554.918 180.43 555.623C181.197 564.025 181.239 573.121 180.403 581.936C181.924 577.343 183.727 572.861 185.661 568.749C186.055 567.895 186.918 568.629 186.596 569.555Z" fill="#455A64"/>
<path d="M242.592 559.001C241.756 567.184 238.966 575.586 235.58 582.139C232.852 587.405 228.602 590.762 225.936 595.989C223.667 602.975 221.082 609.708 218.485 616.432C215.736 623.557 210.671 633.187 213.097 641.73C213.221 642.173 212.988 642.454 212.733 642.484C215.509 647.851 217.436 653.972 217.299 660.887H216.024C214.605 636.01 190.476 629.419 190.265 603.739C190.25 602.563 191.533 602.272 191.684 603.458C193.472 617.398 200.903 625.218 207.586 634.293C208.977 636.183 210.334 638.203 211.575 640.353C209.903 635.177 211.109 629.488 212.788 624.361C215.454 616.23 218.744 608.522 221.603 600.542C224.592 592.189 227.388 583.696 229.328 574.691C231.337 565.344 231.672 556.298 231.836 546.588C231.843 546.025 232.426 545.886 232.521 546.447C234.769 560.307 231.727 576.157 228.004 589.203C229.395 587.273 230.903 585.464 232.144 583.454C236.599 576.227 238.881 567.363 241.316 558.489C241.64 557.322 242.716 557.765 242.592 559.001Z" fill="#455A64"/>
<path d="M291.22 633.736C285.48 634.943 279.936 636.918 274.111 637.388C268.151 637.869 262.231 637.382 256.331 636.053C249.069 634.415 241.766 631.93 234.582 633.05C236.751 631.584 238.905 630.079 240.941 628.242C247.694 622.148 254.194 612.041 256.954 600.983C257.233 599.865 256.163 599.447 255.75 600.238C252.421 606.632 249.664 613.151 245.527 618.593C240.94 624.623 235.614 628.147 230.175 632.173C226.167 635.139 222.226 638.654 219.476 643.978C218.73 645.421 215.144 652.734 217.336 654.304C217.454 654.388 217.612 654.388 217.706 654.234C217.75 654.16 217.795 654.089 217.84 654.015C217.93 653.867 217.909 653.567 217.752 653.529C217.274 653.409 221.58 644.693 221.647 644.592C223.255 642.235 225.094 640.237 227.049 638.542C228.043 637.682 229.065 636.899 230.097 636.148C239.898 633.373 249.931 638.618 259.673 640.332C269.882 642.127 282.01 641.956 291.659 636.082C292.651 635.479 292.285 633.512 291.22 633.736Z" fill="#455A64"/>
<path d="M163.646 653.244C160.755 647.064 156.032 643.61 151.81 639.732C145.813 634.223 141.765 627.891 139.442 617.951C139.245 617.109 138.222 617.17 138.307 618.177C139.94 637.757 153.746 643.389 162.79 654.215C163.23 654.742 164.026 654.054 163.646 653.244Z" fill="#455A64"/>
<path d="M103.714 640.882C101.653 633.417 96.7235 628.14 92.7288 622.979C90.4667 620.057 88.242 617.044 86.4447 613.478C83.9251 608.482 82.6861 602.648 81.2615 596.873C81.0989 596.214 80.4269 596.468 80.5377 597.164C82.0443 606.57 84.3798 615.025 89.1155 621.916C93.726 628.623 98.7596 634.276 103.121 641.384C103.349 641.753 103.848 641.367 103.714 640.882Z" fill="#455A64"/>
<path d="M116.122 566.555C115.305 568.627 113.349 568.285 112.879 565.905C112.841 565.719 112.825 565.531 112.817 565.346C112.812 565.312 112.804 565.282 112.799 565.249C112.733 564.692 112.785 564.192 112.912 563.763C113.11 562.858 113.579 562.09 114.24 561.904C115.854 561.451 116.967 564.413 116.122 566.555Z" fill="#37474F"/>
<path d="M282.481 626.336C281.664 628.408 279.708 628.066 279.238 625.686C279.201 625.499 279.185 625.313 279.176 625.127C279.172 625.093 279.163 625.064 279.159 625.03C279.093 624.473 279.144 623.973 279.271 623.543C279.47 622.637 279.939 621.869 280.599 621.684C282.214 621.232 283.326 624.197 282.481 626.336Z" fill="#37474F"/>
<path d="M120.569 570.374C120.588 570.304 120.608 570.236 120.62 570.154C120.62 570.15 120.62 570.146 120.621 570.142C120.704 569.597 120.621 568.996 120.345 568.582C120.284 568.492 120.202 568.418 120.114 568.352C119.667 567.886 119.054 567.89 118.75 568.827C118.273 570.304 119.43 572.251 120.297 571.011C120.395 570.872 120.47 570.705 120.527 570.528C120.535 570.507 120.543 570.488 120.551 570.464C120.558 570.435 120.562 570.403 120.569 570.374Z" fill="#37474F"/>
<path d="M223.876 558.531C223.854 558.461 223.837 558.394 223.807 558.324C223.805 558.32 223.802 558.318 223.801 558.313C223.598 557.839 223.251 557.499 222.855 557.493C222.768 557.49 222.674 557.522 222.581 557.566C222.04 557.697 221.605 558.332 221.84 559.311C222.209 560.854 223.966 561.042 223.986 559.265C223.988 559.067 223.962 558.87 223.917 558.683C223.913 558.659 223.91 558.636 223.904 558.613C223.896 558.585 223.884 558.56 223.876 558.531Z" fill="#37474F"/>
<path d="M121.05 561.067C120.705 560.816 120.359 561.069 120.152 561.529C120.066 561.721 120.057 561.938 120.093 562.143C120.125 563.236 121.111 563.607 121.395 562.491C121.537 561.94 121.39 561.314 121.05 561.067Z" fill="#37474F"/>
<path d="M157.551 532.104C157.206 531.852 156.86 532.106 156.653 532.568C156.567 532.76 156.558 532.977 156.594 533.182C156.626 534.275 157.613 534.646 157.896 533.53C158.036 532.977 157.891 532.35 157.551 532.104Z" fill="#37474F"/>
<path d="M227.24 549.77C226.873 549.95 226.751 550.485 226.824 551.026C226.854 551.253 226.954 551.414 227.077 551.521C227.624 552.264 228.503 551.511 228.169 550.424C228.004 549.888 227.6 549.595 227.24 549.77Z" fill="#37474F"/>
<path d="M371.836 660.885H567.109C569.403 655.985 571.548 650.89 572.638 645.121C574.292 636.394 572.756 624.819 566.548 620.825C562.552 618.264 558.251 620.399 554.116 620.555C552.86 620.599 551.49 620.367 550.801 618.629C550.326 617.439 550.274 615.888 550.499 614.569C551.025 611.467 553.063 609.482 554.759 607.781C555 607.535 555.122 606.95 554.856 606.621C551.3 602.142 545.93 602.006 542.252 606.186C540.131 602.861 541.056 597.833 542.446 594.2C543.943 590.296 546.354 587.359 548.077 583.688C549.447 580.78 550.381 577.364 549.972 573.792C549.543 570.1 547.78 567.125 545.843 564.869C542.496 560.959 536.723 556.539 532.769 561.198C528.472 566.27 531.216 575.754 528.406 581.943C527.675 583.576 526.501 585.321 525.074 585.403C523.7 585.494 522.749 584.017 522.024 582.504C521.017 580.422 520.211 577.911 518.503 577.035C518.967 570.691 520.081 564.487 520.5 558.134C521.097 548.964 519.698 537.075 513.152 533.165C510.628 531.659 507.619 531.517 505.146 533.321C502.422 535.313 501.145 539.457 501.013 543.772C500.849 549.196 502.107 554.537 501.662 559.97C501.391 563.289 500.288 566.787 497.58 566.023C495.679 565.485 494.151 563.618 492.594 562.038C490.596 559.999 487.153 557.761 485.052 560.763C483.81 562.531 483.984 565.333 482.911 567.237C481.833 569.146 479.988 569.528 478.404 569.56C475.134 569.634 471.976 568.458 468.686 568.87C465.599 569.252 462.514 570.444 459.812 572.727C457.176 574.959 455.126 578.172 453.839 582.226C452.741 585.701 450.824 593.816 447.262 590.235C445.77 588.729 444.892 585.92 443.983 583.694C443.058 581.432 442.138 579.154 441.126 576.974C439.256 572.95 437.028 569.146 434.06 566.808C428.168 562.171 420.392 564.553 416.392 572.457C414.424 576.33 413.397 581.251 413.581 586.076C413.801 591.725 416.417 596.489 416.58 602.078C416.652 604.663 416.141 607.741 414.511 609.151C412.503 610.896 410.015 609.315 407.956 608.619C405.743 607.87 402.275 608.281 401.34 611.976C400.915 613.668 401.36 615.333 402.045 616.725C402.479 617.601 403.016 618.373 403.399 619.302C403.93 620.612 403.828 621.182 403 621.983C400.578 624.374 397.293 623.52 394.535 623.91C378.31 626.199 372.571 654.217 371.836 660.885Z" fill="#263238"/>
<path d="M509.892 614.139C512.273 629.953 514.639 645.49 511.839 660.887H514.082C514.91 657.838 515.702 654.759 516.52 651.694C524.546 646.202 533.196 650.622 541.673 649.094C548.296 647.902 555.345 643.184 559.562 635.392C559.858 634.846 559.413 634.2 559.041 634.628C555.285 639.011 551.427 642.442 547.212 644.556C548.111 643.005 548.975 641.387 549.95 639.933C551.376 637.806 552.959 636.008 554.492 634.052C554.578 633.947 554.466 633.744 554.37 633.827C552.643 635.363 551.059 637.386 549.576 639.386C548.268 641.146 546.858 643.034 545.821 645.199C543.118 646.345 540.266 646.967 537.191 646.953C530.528 646.908 523.079 644.758 517.051 649.725C517.562 647.866 518.083 646.01 518.639 644.18C520.989 636.47 523.779 629.168 526.881 622.066C529.957 615.023 533.14 608.064 535.382 600.348C537.543 592.908 538.683 585.11 539.418 577.124C539.454 576.712 539.03 576.516 538.98 576.951C537.263 590.952 532.629 603.03 527.591 614.858C529.14 608.018 530.406 601.044 532.369 594.368C532.511 593.89 532.046 593.461 531.878 593.949C529.16 601.964 526.247 610.917 525.42 619.899C525.077 620.692 524.735 621.479 524.392 622.275C520.821 630.537 517.72 639.475 515.232 648.736C515.574 638.893 514.144 628.545 512.78 619.519C511.231 609.315 509.735 599.223 509.531 588.729C509.51 587.8 509.51 586.878 509.51 585.956C513.338 574.442 515.207 560.035 514.246 547.502C514.18 546.671 513.353 546.627 513.342 547.502C513.276 554.725 513.204 561.759 512.259 568.891C511.63 573.664 510.644 578.219 509.531 582.736C509.663 574.406 510.348 566.262 511.073 557.917C511.134 557.212 510.378 557.124 510.26 557.752C506.683 576.402 507.071 595.394 509.892 614.139Z" fill="#455A64"/>
<path d="M466.488 592.809C467.964 597.08 469.645 601.424 471.484 605.424C471.944 608.902 472.598 612.28 473.467 615.449C474.677 619.869 476.409 623.855 478.647 627.307C481.335 631.465 484.017 635.067 484.799 640.635C482.678 647.062 480.962 653.888 480.937 660.884H482.547C483.915 648.066 488.362 637.586 492.367 625.906C495.882 615.658 498.805 602.323 495.309 591.212C495.111 590.568 494.466 591.039 494.568 591.67C496.954 606.496 492.697 618.932 487.982 631.704C487.257 633.675 486.505 635.704 485.774 637.772C485.402 635.24 484.446 632.843 483.327 630.775C480.941 626.349 478.115 622.76 476.296 617.679C472.29 606.486 472.934 594.381 471.805 582.28C471.743 581.614 471.13 581.898 471.084 582.424C470.511 588.686 470.481 595.468 471.104 602.036C469.97 598.611 468.626 595.271 467.186 592.208C466.892 591.573 466.249 592.119 466.488 592.809Z" fill="#455A64"/>
<path d="M424.75 584.943C425.373 591.041 427.452 597.306 429.976 602.19C432.009 606.117 435.178 608.617 437.165 612.514C438.856 617.721 440.783 622.741 442.718 627.752C444.767 633.063 448.543 640.241 446.734 646.609C446.642 646.938 446.816 647.149 447.005 647.17C444.936 651.17 443.5 655.732 443.602 660.887H444.551C445.609 642.345 463.594 637.431 463.752 618.289C463.762 617.413 462.807 617.196 462.694 618.08C461.36 628.472 455.822 634.299 450.841 641.064C449.804 642.471 448.792 643.978 447.868 645.581C449.115 641.722 448.215 637.483 446.963 633.662C444.976 627.6 442.524 621.855 440.393 615.907C438.165 609.68 436.08 603.351 434.634 596.639C433.137 589.672 432.887 582.928 432.765 575.693C432.759 575.273 432.326 575.168 432.254 575.588C430.577 585.918 432.847 597.734 435.621 607.457C434.584 606.018 433.46 604.669 432.534 603.171C429.213 597.785 427.512 591.176 425.698 584.561C425.46 583.692 424.657 584.021 424.75 584.943Z" fill="#455A64"/>
<path d="M388.504 640.648C392.782 641.549 396.913 643.02 401.256 643.37C405.699 643.729 410.112 643.366 414.51 642.374C419.923 641.155 425.365 639.3 430.721 640.135C429.105 639.043 427.499 637.922 425.981 636.551C420.948 632.008 416.102 624.475 414.045 616.232C413.836 615.398 414.635 615.088 414.943 615.677C417.423 620.441 419.478 625.303 422.562 629.358C425.981 633.854 429.95 636.479 434.005 639.479C436.992 641.691 439.929 644.311 441.98 648.278C442.535 649.354 445.209 654.806 443.574 655.975C443.487 656.038 443.369 656.038 443.298 655.922C443.265 655.867 443.232 655.815 443.199 655.76C443.131 655.65 443.147 655.426 443.263 655.397C443.619 655.308 440.41 648.81 440.36 648.736C439.161 646.978 437.791 645.491 436.333 644.227C435.592 643.585 434.831 643.001 434.061 642.442C426.755 640.374 419.277 644.284 412.016 645.56C404.406 646.9 395.365 646.771 388.174 642.393C387.436 641.948 387.711 640.482 388.504 640.648Z" fill="#455A64"/>
<path d="M483.595 655.19C485.751 650.584 489.27 648.008 492.418 645.117C496.889 641.011 499.906 636.291 501.637 628.883C501.784 628.254 502.547 628.301 502.485 629.052C501.267 643.646 490.977 647.843 484.235 655.914C483.904 656.308 483.312 655.795 483.595 655.19Z" fill="#455A64"/>
<path d="M528.267 645.976C529.802 640.412 533.477 636.479 536.454 632.632C538.14 630.455 539.799 628.21 541.138 625.552C543.016 621.827 543.94 617.479 545.002 613.175C545.123 612.683 545.624 612.873 545.54 613.392C544.418 620.403 542.677 626.706 539.147 631.841C535.71 636.842 531.958 641.053 528.707 646.354C528.54 646.626 528.167 646.337 528.267 645.976Z" fill="#455A64"/>
<path d="M519.018 590.573C519.626 592.117 521.086 591.862 521.435 590.09C521.463 589.95 521.475 589.811 521.481 589.674C521.486 589.649 521.491 589.625 521.494 589.602C521.543 589.187 521.504 588.815 521.411 588.494C521.262 587.819 520.913 587.247 520.421 587.108C519.218 586.768 518.389 588.978 519.018 590.573Z" fill="#37474F"/>
<path d="M395.017 635.135C395.625 636.679 397.085 636.424 397.434 634.651C397.462 634.512 397.474 634.373 397.48 634.236C397.485 634.211 397.49 634.187 397.493 634.164C397.542 633.748 397.503 633.377 397.41 633.056C397.262 632.381 396.912 631.809 396.42 631.67C395.217 631.328 394.388 633.537 395.017 635.135Z" fill="#37474F"/>
<path d="M515.703 593.421C515.69 593.368 515.674 593.318 515.665 593.259C515.665 593.254 515.665 593.252 515.665 593.248C515.602 592.841 515.665 592.393 515.871 592.085C515.917 592.018 515.977 591.963 516.042 591.915C516.376 591.569 516.834 591.571 517.059 592.269C517.416 593.37 516.553 594.822 515.907 593.896C515.835 593.792 515.779 593.668 515.736 593.535C515.73 593.518 515.724 593.505 515.718 593.489C515.711 593.465 515.708 593.442 515.703 593.421Z" fill="#37474F"/>
<path d="M438.7 584.593C438.716 584.542 438.729 584.489 438.752 584.439C438.752 584.439 438.755 584.435 438.756 584.43C438.907 584.076 439.166 583.823 439.461 583.818C439.526 583.816 439.597 583.84 439.666 583.873C440.069 583.973 440.393 584.445 440.218 585.175C439.944 586.325 438.633 586.464 438.618 585.141C438.617 584.992 438.637 584.846 438.67 584.709C438.674 584.692 438.676 584.675 438.68 584.658C438.686 584.633 438.694 584.614 438.7 584.593Z" fill="#37474F"/>
<path d="M515.345 586.484C515.603 586.296 515.86 586.486 516.014 586.83C516.079 586.973 516.085 587.136 516.057 587.287C516.034 588.102 515.299 588.38 515.086 587.547C514.982 587.133 515.09 586.667 515.345 586.484Z" fill="#37474F"/>
<path d="M488.139 564.894C488.396 564.707 488.654 564.897 488.808 565.241C488.873 565.384 488.878 565.546 488.851 565.698C488.828 566.513 488.093 566.789 487.88 565.958C487.776 565.544 487.885 565.078 488.139 564.894Z" fill="#37474F"/>
<path d="M436.193 578.063C436.466 578.196 436.557 578.594 436.502 579C436.479 579.168 436.406 579.289 436.314 579.369C435.907 579.922 435.25 579.36 435.501 578.55C435.623 578.151 435.924 577.932 436.193 578.063Z" fill="#37474F"/>
</svg>
